<svg width="74" height="16" viewBox="0 0 74 16" fill="none" xmlns="http://www.w3.org/2000/svg">
    <path d="M73.0701 13.9699C65.0969 5.22165 51.4943 0 36.683 0C21.8716 0 8.269 5.22165 0.295843 13.9699C-0.00208628 14.297 -0.0786967 14.7662 0.100061 15.1729C0.278819 15.5768 0.676058 15.8384 1.1187 15.8384H72.25C72.6898 15.8384 73.0899 15.5768 73.2687 15.1729C73.4446 14.7691 73.3652 14.297 73.0701 13.9699ZM49.8798 3.71715C52.0873 4.23192 54.2211 4.87183 56.2612 5.63403L49.8798 12.0303V3.71715ZM37.7952 2.2411C40.8483 2.29798 43.8361 2.58238 46.7246 3.08009L37.7952 12.0303V2.2411ZM16.2649 7.94907L21.9113 13.6087H16.2649V7.94907ZM14.0403 12.0303L10.6524 8.63733C11.7392 8.02018 12.8685 7.44284 14.0403 6.90816V12.0303ZM17.1047 5.63688C19.142 4.87467 21.2757 4.23192 23.4833 3.72V12.0303L17.1047 5.63688ZM25.7106 5.30412L33.9959 13.6087H25.7106V5.30412ZM26.6413 3.08293C29.527 2.58523 32.5176 2.29798 35.5707 2.24394V12.0303L26.6413 3.08293ZM47.6553 5.30412V13.6087H39.37L47.6553 5.30412ZM57.0982 7.94907V13.6087H51.4517L57.0982 7.94907ZM59.3256 6.90816C60.4946 7.44284 61.6239 8.02018 62.7135 8.63733L59.3256 12.0303V6.90816ZM8.69178 9.82329L12.4684 13.6087H3.79155C5.27268 12.235 6.91271 10.9723 8.69178 9.82329ZM60.8975 13.6087L64.6741 9.82329C66.4504 10.9694 68.0932 12.235 69.5744 13.6087H60.8975Z" fill="#F9B35E"/>
</svg>
