<svg width="115" height="156" viewBox="0 0 115 156" fill="none" xmlns="http://www.w3.org/2000/svg">
    <g filter="url(#filter0_d)">
        <path d="M98.9907 53.3581C98.9907 76.1996 57.6326 135.5 57.6326 135.5C57.6326 135.5 16.2744 76.1996 16.2744 53.3581C16.2744 30.5167 34.7911 12 57.6326 12C80.474 12 98.9907 30.5167 98.9907 53.3581Z" fill="#3A3A3A"/>
    </g>
    <path d="M33.3855 41.1635C41.5023 41.171 49.6207 41.1695 57.7375 41.1695C57.7375 41.171 57.7375 41.171 57.7375 41.1725C63.4642 41.1725 69.1908 41.1725 74.9189 41.1725C77.4586 41.1725 79.9983 41.1635 82.538 41.171C82.9446 41.1725 83.2989 41.0933 83.4768 40.7076C83.6636 40.301 83.5201 39.9303 83.2316 39.6119C83.115 39.4834 82.9909 39.3593 82.8684 39.2352C79.212 35.5356 74.762 33.1603 69.8366 31.7014C64.9919 30.2663 60.0261 29.7581 54.9557 30.1049C50.6775 30.3979 46.5459 31.226 42.5756 32.8329C38.8236 34.3487 35.4334 36.425 32.6022 39.3578C32.2225 39.7524 31.8518 40.1336 32.0835 40.7181C32.3302 41.3384 32.9116 41.1635 33.3855 41.1635ZM77.1029 37.28C77.3376 37.0334 77.5573 37.0184 77.8249 37.1903C78.6829 37.7419 79.4886 38.3638 80.2674 39.0215C80.387 39.1216 80.5918 39.2322 80.4811 39.4415C80.4004 39.591 80.2166 39.5476 80.0746 39.5491C79.3286 39.5536 78.5812 39.5506 77.8353 39.5506C77.8353 39.5521 77.8353 39.5521 77.8353 39.5536C77.064 39.5536 76.2927 39.5566 75.5214 39.5521C75.3778 39.5506 75.185 39.576 75.1521 39.3922C75.1357 39.301 75.2388 39.168 75.3195 39.0843C75.91 38.4804 76.5199 37.8914 77.1029 37.28ZM74.1461 35.1335C74.1925 35.1514 74.2388 35.1693 74.2866 35.1843C76.0176 35.7269 76.0939 36.0318 74.8577 37.286C74.5437 37.6029 74.2896 37.9796 74.0071 38.3279C73.9129 38.2756 73.8188 38.2247 73.7246 38.1724C73.7246 37.2606 73.7261 36.3487 73.7246 35.4369C73.7246 35.1335 73.8561 35.0258 74.1461 35.1335ZM72.0818 39.0723C72.0848 39.4206 71.9263 39.5551 71.584 39.5521C70.6916 39.5417 69.7992 39.5491 68.9068 39.5462C68.5794 39.5447 68.3791 39.4355 68.6871 39.1261C69.7648 38.0424 70.8545 36.9706 72.0773 35.7583C72.0788 36.993 72.0743 38.0334 72.0818 39.0723ZM67.7349 32.818C68.8066 33.117 69.8724 33.4398 70.9353 33.7702C71.2821 33.8778 71.4525 34.0751 71.1176 34.407C69.9412 35.5789 68.7693 36.7568 67.5914 37.9288C67.4927 38.0259 67.391 38.1904 67.2221 38.0857C67.0756 37.996 67.1265 37.8181 67.125 37.6761C67.1205 36.9317 67.1235 36.1888 67.1235 35.4444C67.122 35.4444 67.1205 35.4444 67.119 35.4444C67.119 34.7508 67.1369 34.0557 67.113 33.3621C67.0966 32.8942 67.2999 32.6954 67.7349 32.818ZM65.3402 34.1977C65.5031 34.271 65.4882 34.4414 65.4882 34.5879C65.4896 36.0543 65.4852 37.5207 65.4926 38.9871C65.4941 39.4041 65.2968 39.5611 64.8977 39.5536C64.1518 39.5417 63.4059 39.5506 62.6615 39.5506C61.9155 39.5521 61.1696 39.5536 60.4252 39.5491C60.2832 39.5476 60.0904 39.5865 60.053 39.4012C60.0351 39.3115 60.1307 39.1725 60.21 39.0932C61.7885 37.5072 63.3715 35.9272 64.9545 34.3472C65.0576 34.244 65.1757 34.123 65.3402 34.1977ZM58.6135 34.9257C58.6135 34.2366 58.6195 33.546 58.6165 32.8569C58.615 32.6267 58.6135 32.3965 58.609 32.1677C58.6015 31.7552 58.7555 31.5668 59.1755 31.6012C60.8303 31.7387 62.491 31.794 64.1324 32.0706C64.4777 32.1289 64.5449 32.3142 64.388 32.5953C64.3177 32.7223 64.2011 32.827 64.0965 32.9316C62.4806 34.549 60.8647 36.1664 59.2398 37.7748C59.0963 37.9168 58.9737 38.2113 58.7166 38.0857C58.5193 37.9886 58.6195 37.724 58.6165 37.5356C58.609 36.6656 58.6135 35.7957 58.6135 34.9257ZM51.5027 32.0631C53.0169 31.7806 54.5611 31.7955 56.0843 31.6027C56.7375 31.5205 57.0499 31.7477 57.0051 32.4667C56.9991 32.5713 56.9931 32.6775 56.9901 32.7821C56.9632 33.5191 56.9931 34.259 56.9931 34.9989C56.9931 35.9182 56.9961 36.8361 56.9886 37.7554C56.9871 37.869 56.9662 38.0304 56.8915 38.0872C56.733 38.2083 56.6239 38.0394 56.5252 37.9422C54.7673 36.1888 53.0109 34.4339 51.259 32.676C50.8853 32.3008 51.0662 32.1438 51.5027 32.0631ZM50.12 36.694C50.1215 36.694 50.1244 36.694 50.1259 36.694C50.1259 35.9496 50.1215 35.2052 50.1304 34.4608C50.1319 34.3457 50.1513 34.1828 50.2261 34.1289C50.386 34.0138 50.4922 34.1872 50.5878 34.2829C52.1529 35.8405 53.7165 37.3996 55.2771 38.9632C55.3967 39.0843 55.5387 39.2173 55.44 39.4146C55.3593 39.5761 55.1874 39.5506 55.0454 39.5506C53.6059 39.5536 52.1679 39.5447 50.7283 39.5566C50.2784 39.5596 50.108 39.3653 50.117 38.9273C50.1304 38.1829 50.12 37.4385 50.12 36.694ZM44.5966 33.7896C45.7222 33.4099 46.8478 33.0288 48.0138 32.7761C48.3411 32.7044 48.4443 32.7881 48.5071 33.1065C48.6207 33.676 48.6326 34.256 48.5579 34.8106C48.4114 35.9093 48.7163 37.0259 48.3695 38.3234C46.9749 36.9153 45.7013 35.6357 44.4352 34.3487C44.1766 34.0856 44.3141 33.8853 44.5966 33.7896ZM43.5114 36.3637C43.5159 36.0498 43.6115 35.8196 43.9329 36.1335C44.9434 37.126 45.9434 38.1306 46.936 39.1411C47.1871 39.3967 47.0586 39.5372 46.7447 39.5432C46.2723 39.5521 45.7999 39.5447 45.3276 39.5447C43.5189 39.5566 43.5174 39.5566 43.5099 37.7793C43.5069 37.3084 43.5054 36.8361 43.5114 36.3637ZM39.9776 35.8196C40.0658 35.7747 40.1525 35.7254 40.2407 35.6806C42.1152 34.7299 41.8775 34.7971 41.8746 36.6313C41.8746 37.0289 41.8761 37.4265 41.8731 37.8241C41.8716 37.9452 41.8775 38.0857 41.7326 38.1365C41.5995 38.1814 41.4964 38.1037 41.4082 38.011C40.894 37.4728 40.3812 36.9332 39.864 36.3981C39.6174 36.141 39.6966 35.9631 39.9776 35.8196ZM35.3766 38.9826C36.124 38.4071 36.8864 37.851 37.6248 37.2636C37.9731 36.9855 38.2451 37.0453 38.5322 37.3353C39.0912 37.9019 39.6607 38.4579 40.2183 39.026C40.3289 39.1396 40.5442 39.2382 40.4291 39.4475C40.3469 39.5985 40.163 39.5447 40.0195 39.5462C39.2736 39.5506 38.5262 39.5476 37.7803 39.5491C37.0583 39.5506 36.3378 39.5566 35.6158 39.5462C35.4334 39.5432 35.1718 39.6448 35.0986 39.3907C35.0477 39.2113 35.2421 39.0858 35.3766 38.9826Z" fill="#F9B35E"/>
    <path d="M54.9742 54.6587C56.5901 54.6378 58.2105 54.72 59.8204 54.6228C61.0791 54.5466 62.1194 53.9397 62.5634 52.6646C62.9954 51.4225 63.0507 50.2102 61.8922 49.2744C61.6396 49.0711 61.7114 48.9336 61.8668 48.7303C63.2929 46.8603 61.7039 43.9245 59.0521 43.923C57.7337 43.9215 56.4167 43.9439 55.0983 43.914C54.596 43.9035 54.4645 44.0874 54.472 44.5642C54.478 44.9559 54.4824 45.3475 54.4839 45.7392C54.4899 46.9141 54.4809 48.089 54.4809 49.2639C54.4809 50.8559 54.4854 52.4464 54.478 54.0384C54.478 54.3882 54.4839 54.6647 54.9742 54.6587ZM58.3226 46.3789C58.5947 46.3969 58.8817 46.364 59.1328 46.4447C59.5035 46.5643 59.641 46.8902 59.6351 47.2713C59.6291 47.6645 59.4437 47.947 59.07 48.0546C58.5364 48.2086 57.9848 48.1249 57.4422 48.1189C57.191 48.1159 57.1507 47.9156 57.1223 47.7004C56.9549 46.4746 57.0655 46.3505 58.3226 46.3789ZM57.1253 50.6661C57.1881 50.4179 57.3256 50.3507 57.5453 50.3507C57.8428 50.3522 58.1388 50.3507 58.4362 50.3507C58.4362 50.3522 58.4362 50.3537 58.4362 50.3552C58.7337 50.3552 59.0327 50.3297 59.3271 50.3611C59.8683 50.4194 60.097 50.817 60.1074 51.2894C60.1179 51.7797 59.8727 52.1489 59.3137 52.1728C58.9669 52.1878 58.6201 52.1818 58.2748 52.1818C57.1357 52.1848 56.8413 51.7857 57.1253 50.6661Z" fill="white"/>
    <path d="M40.4142 43.9155C39.8178 43.9319 39.2199 43.9349 38.6235 43.9125C38.1974 43.8961 38.0554 44.0695 38.0719 44.485C38.0973 45.1054 38.0764 45.7287 38.0778 46.3505C38.0778 47.799 38.0793 47.799 36.6368 47.7975C34.7997 47.7945 34.7997 47.7945 34.7997 45.9903C34.7997 43.8811 34.7997 43.8976 32.7085 43.911C32.2017 43.914 32.0134 44.0381 32.0238 44.5762C32.0328 44.9678 32.0373 45.3595 32.0403 45.7511C32.0478 46.9261 32.0358 48.1025 32.0358 49.2774C32.0358 50.0741 32.0388 50.8694 32.0403 51.6661C32.0403 52.4628 32.0388 53.2581 32.0283 54.0548C32.0224 54.5033 32.1524 54.6871 32.6188 54.6602C33.1644 54.6273 33.7145 54.6288 34.2601 54.6602C34.6951 54.6841 34.8177 54.5078 34.8087 54.0952C34.7878 53.0503 34.8206 52.0054 34.7937 50.9606C34.7803 50.4688 34.9567 50.2744 35.441 50.3372C35.6129 50.3596 35.7893 50.3342 35.9627 50.3417C36.6294 50.3731 37.4904 50.0637 37.9149 50.4553C38.3873 50.8918 38.0629 51.7752 38.0704 52.4614C38.0943 54.7394 38.0793 54.7394 40.353 54.6527C40.3784 54.6513 40.4023 54.6498 40.4277 54.6527C40.8193 54.6931 40.9434 54.5092 40.9419 54.1296C40.9329 50.8948 40.9329 47.6615 40.9449 44.4267C40.9449 44.0276 40.7879 43.905 40.4142 43.9155Z" fill="white"/>
    <path d="M82.3479 44.92C80.3941 43.4043 77.3821 43.4372 75.3491 45.0022C73.6271 46.3281 72.9574 49.252 73.8453 51.4718C74.8902 54.0847 77.6945 55.2193 80.4599 54.5481C82.2088 54.1236 83.3778 53.0399 83.889 51.267C84.0818 50.6003 83.8845 50.4239 83.2462 50.4867C82.8277 50.5271 82.4002 50.5151 81.9786 50.4897C81.5676 50.4643 81.3239 50.5809 81.1012 50.9785C80.2417 52.5137 78.128 52.6557 77.0188 51.2879C76.1967 50.273 76.0607 48.7856 76.6855 47.6481C77.5017 46.1652 79.7753 45.7721 80.726 47.0531C81.2522 47.7632 81.7753 48.0248 82.4331 47.8738C82.8068 47.8738 83.034 47.8499 83.2552 47.8783C83.9159 47.962 84.0235 47.6794 83.8307 47.1099C83.5347 46.2384 83.0818 45.4895 82.3479 44.92Z" fill="white"/>
    <path d="M71.7663 53.7947C71.5988 53.2521 72.3836 52.3223 71.2446 52.1878C70.3611 52.0832 69.4523 52.1265 68.5584 52.1803C67.8977 52.2207 67.6421 52.0533 67.6854 51.3387C67.7557 50.1743 67.5942 50.3387 68.6765 50.3283C68.95 50.3253 69.2236 50.3283 69.4986 50.3283C71.4255 50.3268 71.412 50.3283 71.3432 48.379C71.3283 47.9455 71.1788 47.8214 70.7722 47.8319C69.9755 47.8528 69.1758 47.7975 68.3835 47.8499C67.802 47.8887 67.669 47.675 67.6854 47.1338C67.7019 46.6465 67.7183 46.3132 68.3521 46.3834C68.8439 46.4387 69.3462 46.3939 69.8454 46.3939C71.6975 46.3924 71.6841 46.3939 71.6347 44.5119C71.6228 44.056 71.4793 43.9065 71.0278 43.911C69.2101 43.929 67.3924 43.929 65.5747 43.908C65.1218 43.902 64.9693 44.0381 64.9768 44.5C64.9828 44.8976 64.9873 45.2967 64.9888 45.6943C64.9948 46.8902 64.9858 48.0845 64.9858 49.2804C64.9858 50.8739 64.9918 52.4673 64.9813 54.0608C64.9783 54.433 65.0232 54.6647 65.497 54.6602C67.4134 54.6393 69.3312 54.6348 71.2491 54.6602C71.986 54.6707 71.8694 54.1251 71.7663 53.7947Z" fill="white"/>
    <path d="M52.4503 54.6572C53.1529 54.6438 53.2485 54.5077 52.9511 53.8605C51.4981 50.7019 50.0317 47.5494 48.5847 44.3878C48.3829 43.9469 48.1153 43.76 47.6161 43.7555C47.0989 43.7511 46.9374 44.053 46.7655 44.4297C45.8866 46.349 44.9986 48.2654 44.1137 50.1832C43.5412 51.4239 42.9612 52.6602 42.4066 53.9098C42.302 54.1445 42.0404 54.5705 42.5217 54.6243C43.2826 54.7095 44.0599 54.6542 44.8297 54.6363C45.03 54.6318 45.1078 54.427 45.1481 54.2626C45.3679 53.3642 45.9613 53.1235 46.8104 53.2611C46.8836 53.273 46.9569 53.279 47.0316 53.282C47.2543 53.291 47.4815 53.2685 47.7058 53.2685C48.1168 53.2685 48.5264 53.276 48.9375 53.2715C49.0735 53.27 49.211 53.267 49.3471 53.2626C49.6356 53.2521 49.8613 53.3448 49.9196 53.6168C50.1483 54.6796 50.9047 54.7604 51.7791 54.6632C52.0004 54.6363 52.2261 54.6602 52.4503 54.6572ZM48.3665 50.9277C46.4142 51.0712 46.4157 51.0831 47.193 49.3192C47.3291 49.0083 47.4621 48.6959 47.6729 48.2041C48.069 49.0831 48.368 49.7557 48.6744 50.4254C48.8269 50.7558 48.779 50.8963 48.3665 50.9277Z" fill="white"/>
    <path d="M40.187 57.4226C39.8372 57.4316 39.6548 57.6484 39.453 57.8681C38.5785 58.8203 37.6831 59.756 36.8341 60.7307C36.4753 61.1417 36.272 61.2105 35.8804 60.7381C35.0239 59.7052 34.0851 58.7426 33.1987 57.7336C32.9266 57.4226 32.5978 57.3703 32.257 57.4555C31.8788 57.5497 32.0298 57.907 32.0298 58.1536C32.0208 60.6664 32.0477 63.1807 32.0103 65.692C31.9984 66.4663 32.5171 66.3811 32.8878 66.2675C33.393 66.112 34.2944 66.8938 34.3841 65.7204C34.4289 65.1299 34.3108 64.526 34.3662 63.937C34.408 63.4886 34.1524 63.0192 34.4633 62.52C34.9461 63.0312 35.4215 63.4931 35.8475 63.9968C36.2063 64.4199 36.5007 64.4498 36.8745 64.0222C37.3139 63.5215 37.7878 63.0506 38.2482 62.5678C38.308 62.5902 38.3693 62.6126 38.4291 62.6351C38.4291 63.671 38.4231 64.7054 38.4335 65.7413C38.435 65.9416 38.3274 66.2555 38.6652 66.2734C39.2856 66.3048 39.9089 66.3003 40.5293 66.2704C40.8058 66.257 40.761 65.9864 40.7625 65.7981C40.7655 63.1851 40.7565 60.5722 40.7714 57.9608C40.7714 57.5153 40.5861 57.4122 40.187 57.4226Z" fill="white"/>
    <path d="M59.6111 62.9878C59.4377 62.9863 59.2613 63.0028 59.0894 62.9848C58.4855 62.9176 58.052 63.0387 57.6858 63.6411C57.3121 64.2524 56.6125 64.4572 55.8621 64.3511C53.9622 64.082 53.3941 61.6933 54.3792 60.2867C55.2029 59.1073 56.9937 59.1058 57.8024 60.2957C58.0281 60.6275 58.2568 60.777 58.6499 60.7456C58.9967 60.7187 59.3465 60.7247 59.6933 60.7426C60.1911 60.768 60.363 60.6455 60.1791 60.0969C59.9908 59.5363 59.7322 59.0639 59.4003 58.6783C59.2673 58.5243 59.1223 58.3838 58.9653 58.2582C58.8383 58.1551 58.7007 58.0654 58.5572 57.9802C58.4018 57.889 58.2373 57.8083 58.0625 57.7395C57.5064 57.5183 56.8561 57.4047 56.1013 57.4047C55.5452 57.3823 55.0235 57.4346 54.5452 57.5646C54.2582 57.6424 53.9861 57.75 53.732 57.886C53.0518 58.2478 52.4943 58.8158 52.0877 59.6021C51.2371 61.2494 51.2685 62.9684 52.3119 64.5664C53.4719 66.3452 56.0041 66.9207 58.0266 66.0806C59.073 65.6456 59.777 64.8907 60.1432 63.813C60.4033 63.0431 60.3854 62.9968 59.6111 62.9878Z" fill="white"/>
    <path d="M81.0503 57.4569C79.8575 57.4181 78.6616 57.4599 77.4672 57.43C76.9994 57.4181 76.8678 57.5944 76.8753 58.0384C76.8977 59.3075 76.8828 60.5766 76.8828 61.8457C76.8828 62.7919 76.8828 63.7366 76.8828 64.6829C76.8828 66.3331 76.8828 66.3331 78.5345 66.2943C78.5839 66.2928 78.6347 66.2898 78.684 66.2943C79.0488 66.3346 79.1429 66.1523 79.1564 65.8129C79.1788 65.2748 78.9097 64.5962 79.2894 64.2344C79.6915 63.8502 80.3836 64.1537 80.9457 64.0879C80.9696 64.0849 80.995 64.0864 81.0204 64.0849C82.7574 64.0102 83.9936 62.6514 83.9996 60.8098C84.0056 58.8695 82.8351 57.5167 81.0503 57.4569ZM81.6886 60.9443C81.6542 61.5288 81.4121 61.9444 80.7798 62.0146C80.5839 62.0355 80.3836 62.0176 80.1863 62.0191C79.2102 62.0221 79.1504 62.0221 79.1444 61.1656C79.1444 61.1088 79.1444 61.0475 79.1444 60.9832C79.1444 60.9339 79.1444 60.8845 79.1444 60.8352C79.1429 59.442 79.5824 59.1147 80.9576 59.5093C81.6961 59.7216 81.726 60.3225 81.6886 60.9443Z" fill="white"/>
    <path d="M47.2299 58.0176C47.0594 57.6499 46.9384 57.2343 46.3599 57.2433C45.8187 57.2523 45.7081 57.6379 45.5482 57.9847C44.5153 60.2165 43.4988 62.4557 42.4689 64.689C41.717 66.3183 41.711 66.3153 43.5406 66.2929C43.8321 66.2899 44.2029 66.3751 44.2925 65.9895C44.4764 65.2092 45.0235 65.1942 45.6573 65.2271C46.327 65.2615 47.0011 65.2346 47.6723 65.2346C47.895 65.2346 48.1566 65.2017 48.2269 65.4872C48.4302 66.3109 49.0132 66.402 49.5857 66.2929C49.8637 66.2929 50.0117 66.2944 50.1612 66.2929C51.0177 66.2854 51.0192 66.2854 50.647 65.4723C49.5094 62.9864 48.3764 60.499 47.2299 58.0176ZM46.9174 63.2809C46.892 63.2809 46.8681 63.2809 46.8427 63.2824C45.3374 63.4034 45.3225 63.387 45.9294 62.0342C46.0564 61.7517 46.1028 61.4198 46.4256 61.1268C46.7022 61.7382 46.9414 62.2763 47.1895 62.81C47.33 63.1105 47.2881 63.2868 46.9174 63.2809Z" fill="white"/>
    <path d="M74.3967 64.3632C73.6792 64.414 72.9587 64.417 72.2397 64.4185C71.7613 64.42 71.4639 64.272 71.4848 63.677C71.5177 62.689 71.4788 62.6875 72.4654 62.686C72.739 62.686 73.0125 62.6905 73.2861 62.686C74.6852 62.6576 74.47 62.9461 74.5163 61.3915C74.5297 60.9281 74.3683 60.7726 73.9184 60.7965C73.3728 60.8249 72.8227 60.7786 72.2786 60.8115C71.724 60.8444 71.4773 60.6934 71.4803 60.0686C71.4833 59.4333 71.7972 59.3929 72.2741 59.4228C72.6702 59.4467 73.0693 59.4288 73.4669 59.4288C74.8571 59.4288 74.8407 59.4288 74.8048 58.0266C74.7943 57.6081 74.6703 57.4601 74.2472 57.4661C72.7808 57.484 71.3129 57.487 69.8465 57.4646C69.3831 57.4571 69.2411 57.632 69.2471 58.076C69.2665 59.3436 69.2545 60.6112 69.2545 61.8803C69.2545 62.9251 69.2904 63.97 69.2575 65.0134C69.2531 65.1629 69.2471 65.3109 69.2381 65.4603C69.1992 66.1823 69.4623 66.3363 70.123 66.3079C71.289 66.2571 72.4594 66.2945 73.6284 66.2945C75.035 66.2945 75.1157 66.1943 74.9378 64.7847C74.89 64.4244 74.7465 64.3377 74.3967 64.3632Z" fill="white"/>
    <path d="M67.1234 57.4256C65.4581 57.463 63.7914 57.4406 62.1247 57.4421C61.1815 57.4421 61.1755 57.4421 61.183 58.4227C61.1934 59.6275 61.0395 59.4645 62.2697 59.4795C62.4431 59.481 62.6195 59.4944 62.7914 59.4735C63.2518 59.4182 63.3908 59.6155 63.3848 60.0684C63.3624 61.5857 63.3758 63.1029 63.3773 64.6202C63.3773 66.4214 63.3758 66.4095 65.1696 66.3048C65.5687 66.2824 65.6809 66.1314 65.6749 65.7637C65.6599 64.7936 65.6704 63.8234 65.6704 62.8533C65.6719 62.4557 65.6719 62.058 65.6704 61.6589C65.6704 61.2359 65.7078 60.8084 65.6599 60.3913C65.5792 59.6918 65.8004 59.4287 66.5478 59.4616C67.8633 59.5198 67.8334 59.4735 67.8693 58.185C67.8857 57.5945 67.7153 57.4122 67.1234 57.4256Z" fill="white"/>
    <defs>
        <filter id="filter0_d" x="0.274414" y="0" width="114.716" height="155.5" filterUnits="userSpaceOnUse" color-interpolation-filters="sRGB">
            <feFlood flood-opacity="0" result="BackgroundImageFix"/>
            <feColorMatrix in="SourceAlpha" type="matrix" values="0 0 0 0 0 0 0 0 0 0 0 0 0 0 0 0 0 0 127 0"/>
            <feOffset dy="4"/>
            <feGaussianBlur stdDeviation="8"/>
            <feColorMatrix type="matrix" values="0 0 0 0 0.976471 0 0 0 0 0.701961 0 0 0 0 0.368627 0 0 0 0.5 0"/>
            <feBlend mode="normal" in2="BackgroundImageFix" result="effect1_dropShadow"/>
            <feBlend mode="normal" in="SourceGraphic" in2="effect1_dropShadow" result="shape"/>
        </filter>
    </defs>
</svg>
