<svg width="74" height="52" viewBox="0 0 74 52" fill="none" xmlns="http://www.w3.org/2000/svg">
    <path d="M12.6407 35.0527C11.3156 35.0527 9.99337 35.0527 8.6683 35.0527V28.938H3.9752V35.0527C2.65012 35.0527 1.30518 35.0527 0.00280762 35.0527V19.8201C1.30518 19.8201 2.65296 19.8201 3.9752 19.8201V25.3489H8.66546V19.8201C9.99054 19.8201 11.3156 19.8201 12.6379 19.8201V35.0527H12.6407Z" fill="#3A3A3A"/>
    <path d="M25.2984 33.1386H19.3058L18.4148 35.0527H14.6155V34.4867L21.4537 19.6238H23.125L29.9859 34.4896V35.0555H26.1894L25.2984 33.1386ZM22.2794 25.8039L20.5656 29.8083H24.0386L22.2794 25.8039Z" fill="#3A3A3A"/>
    <path d="M42.0166 27.1321C43.2537 27.7635 43.841 28.8954 43.841 30.2435C43.8183 32.8969 42.2123 35.0527 39.1082 35.0527H31.9863V19.8201H38.4783C41.1057 19.8201 43.2111 21.8649 43.2111 24.4985C43.2111 25.4114 42.7543 26.5235 42.0166 27.1321ZM35.7402 23.3012V25.7613H38.1946C39.7353 25.7613 39.7353 23.3012 38.1719 23.3012H35.7402ZM35.7402 29.0035V31.5944H38.8443C40.4077 31.5944 40.385 29.0035 38.8216 29.0035H35.7402Z" fill="#3A3A3A"/>
    <path d="M56.3683 23.3012C54.1097 23.3012 52.9804 23.3012 50.7445 23.3012V25.4569H55.9114C55.9114 26.6116 55.9114 27.7635 55.9114 28.9181H50.7445C50.7445 29.8112 50.7445 30.6814 50.7445 31.5944C52.9804 31.5944 54.2828 31.5944 56.564 31.5944C56.564 32.7263 56.564 33.9009 56.564 35.0556C53.0031 35.0556 50.3983 35.0556 46.8799 35.0556C46.8799 29.9619 46.8799 24.8711 46.8799 19.8201C50.3983 19.8201 52.8073 19.8201 56.3683 19.8201C56.3683 20.952 56.3683 22.1266 56.3683 23.3012Z" fill="#3A3A3A"/>
    <path d="M66.7901 19.6464C69.9396 19.6464 73.3474 21.3642 73.9347 25.434C72.6096 25.434 71.4378 25.434 70.1127 25.434C69.5708 23.8897 68.4188 23.1929 66.7901 23.1929C64.5088 23.1929 63.0106 24.9135 63.0106 27.4362C63.0106 29.6773 64.4861 31.6368 66.7901 31.6596C68.4415 31.6596 69.7637 30.8319 70.178 29.1995C71.4804 29.1995 72.6749 29.1995 74 29.1995C73.4353 33.5082 70.0276 35.2061 66.7901 35.2061C62.9255 35.2288 59.0156 32.6152 58.9957 27.4362C59.0156 22.2572 62.9255 19.6464 66.7901 19.6464Z" fill="#3A3A3A"/>
    <path d="M11.2277 39.0201H12.3882V51.7813C11.2816 51.7813 10.175 51.7813 9.0684 51.7813V46.1103L6.36718 48.9458H6.00399L3.31978 46.1103V51.7813C2.21319 51.7813 1.1066 51.7813 0 51.7813V39.0201H1.19739L6.16572 44.5461L11.2277 39.0201Z" fill="#3A3A3A"/>
    <path d="M22.9434 50.1801H17.9382L17.1948 51.7784H14.0226V51.3063L19.7343 38.8921H21.1303L26.8619 51.3063V51.7784H23.6868L22.9434 50.1801ZM20.4238 44.054L18.9909 47.3986H21.8936L20.4238 44.054Z" fill="#3A3A3A"/>
    <path d="M34.2789 38.9091C36.9092 38.9091 39.7551 40.3453 40.246 43.7439C39.1394 43.7439 38.1605 43.7439 37.0539 43.7439C36.5999 42.4527 35.638 41.8725 34.2789 41.8725C32.375 41.8725 31.1237 43.3088 31.1237 45.4162C31.1237 47.2876 32.358 48.9257 34.2789 48.9428C35.6579 48.9428 36.7645 48.2517 37.1078 46.8894C38.1946 46.8894 39.1933 46.8894 40.2999 46.8894C39.8289 50.4871 36.9801 51.9063 34.2789 51.9063C31.0499 51.9234 27.7869 49.742 27.7699 45.4162C27.7869 41.0904 31.0499 38.9091 34.2789 38.9091Z" fill="#3A3A3A"/>
    <path d="M41.5314 41.9636C41.5314 40.9825 41.5314 40.0183 41.5314 39.0542H50.963C50.963 40.0183 50.963 40.9796 50.963 41.9636H47.8617V51.7784C46.792 51.7784 45.7223 51.7784 44.6525 51.7784V41.9636H41.5314Z" fill="#3A3A3A"/>
    <path d="M60.8996 41.9636C59.0127 41.9636 58.0707 41.9636 56.2037 41.9636V43.7639H60.5194C60.5194 44.728 60.5194 45.6893 60.5194 46.6535H56.2037C56.2037 47.3986 56.2037 48.1267 56.2037 48.8889C58.0707 48.8889 59.1603 48.8889 61.0642 48.8889C61.0642 49.8331 61.0642 50.8143 61.0642 51.7784C58.0906 51.7784 55.9143 51.7784 52.9747 51.7784C52.9747 47.5237 52.9747 43.2719 52.9747 39.0542C55.9114 39.0542 57.926 39.0542 60.8996 39.0542C60.8996 40.0013 60.8996 40.9825 60.8996 41.9636Z" fill="#3A3A3A"/>
    <path d="M63.8562 51.7784C63.8562 47.5436 63.8562 43.3089 63.8562 39.0542C65.6892 39.0542 67.5732 39.0542 69.4431 39.0542C75.518 39.0713 75.518 48.5248 69.4431 48.5248H67.1051V51.7784C66.0155 51.7784 64.9259 51.7784 63.8562 51.7784ZM69.4232 41.9636C68.6628 41.9466 67.8456 41.9636 67.1022 41.9636C67.1022 42.9989 67.1022 44.5631 67.1022 45.5983H69.4232C71.1995 45.5983 71.3101 41.9807 69.4232 41.9636Z" fill="#3A3A3A"/>
    <path d="M73.0701 13.9699C65.0969 5.22165 51.4943 0 36.683 0C21.8716 0 8.269 5.22165 0.295843 13.9699C-0.00208628 14.297 -0.0786967 14.7662 0.100061 15.1729C0.278819 15.5768 0.676058 15.8384 1.1187 15.8384H72.25C72.6898 15.8384 73.0899 15.5768 73.2687 15.1729C73.4446 14.7691 73.3652 14.297 73.0701 13.9699ZM49.8798 3.71715C52.0873 4.23192 54.2211 4.87183 56.2612 5.63403L49.8798 12.0303V3.71715ZM37.7952 2.2411C40.8483 2.29798 43.8361 2.58238 46.7246 3.08009L37.7952 12.0303V2.2411ZM16.2649 7.94907L21.9113 13.6087H16.2649V7.94907ZM14.0403 12.0303L10.6524 8.63733C11.7392 8.02018 12.8685 7.44284 14.0403 6.90816V12.0303ZM17.1047 5.63688C19.142 4.87467 21.2757 4.23192 23.4833 3.72V12.0303L17.1047 5.63688ZM25.7106 5.30412L33.9959 13.6087H25.7106V5.30412ZM26.6413 3.08293C29.527 2.58523 32.5176 2.29798 35.5707 2.24394V12.0303L26.6413 3.08293ZM47.6553 5.30412V13.6087H39.37L47.6553 5.30412ZM57.0982 7.94907V13.6087H51.4517L57.0982 7.94907ZM59.3256 6.90816C60.4946 7.44284 61.6239 8.02018 62.7135 8.63733L59.3256 12.0303V6.90816ZM8.69178 9.82329L12.4684 13.6087H3.79155C5.27268 12.235 6.91271 10.9723 8.69178 9.82329ZM60.8975 13.6087L64.6741 9.82329C66.4504 10.9694 68.0932 12.235 69.5744 13.6087H60.8975Z" fill="#F9B35E"/>
</svg>
