<svg xmlns="http://www.w3.org/2000/svg" display="none">
    <symbol id="adv-icon1" viewBox="0 0 42 42">
        <path fill-rule="evenodd" clip-rule="evenodd"
              d="M28.656 1.98194L40.9443 14.2702C42.3519 15.6778 42.3519 17.9681 40.9443 19.3756L35.7939 24.526V38.3898C35.7939 40.3804 34.1744 41.9999 32.1837 41.9999H4.53642C2.54578 41.9999 0.92627 40.3804 0.92627 38.3898V21.0116C0.92627 19.0209 2.54578 17.4014 4.53642 17.4014H8.13108L23.5505 1.98194C24.958 0.574461 27.2484 0.5743 28.656 1.98194ZM26.1033 3.33181C25.7952 3.33181 25.4871 3.44918 25.2524 3.68376L11.5346 17.4014H25.9001L33.286 10.0156L26.9542 3.68376C26.7196 3.44918 26.4115 3.33181 26.1033 3.33181ZM32.1837 39.5932C32.8473 39.5932 33.3871 39.0533 33.3871 38.3898V21.0116C33.3871 20.348 32.8473 19.8082 32.1837 19.8082H4.53642C3.87287 19.8082 3.33303 20.348 3.33303 21.0116V38.3898C3.33303 39.0533 3.87287 39.5932 4.53642 39.5932H32.1837ZM32.1837 17.4014C32.3499 17.4014 32.5131 17.4137 32.6734 17.4355L36.6897 13.4192L34.9878 11.7173L29.3038 17.4014H32.1837ZM35.7939 21.1225L39.2424 17.6739C39.7117 17.2046 39.7117 16.4411 39.2424 15.9719L38.3916 15.121L34.8884 18.6242C35.4512 19.261 35.7939 20.0968 35.7939 21.0116V21.1225ZM10.2179 33.5438H5.73977V35.9506H10.2179V33.5438ZM12.6606 33.5438H17.1387V35.9506H12.6606V33.5438ZM24.0596 33.5438H19.5814V35.9506H24.0596V33.5438ZM26.5022 33.5438H30.9803V35.9506H26.5022V33.5438ZM5.73977 23.4508H13.864V30.6711H5.73977V23.4508ZM8.14653 28.2644H11.4572V25.8576H8.14653V28.2644Z"/>
    </symbol>

    <symbol id="adv-icon2" viewBox="0 0 46 33">
        <path fill-rule="evenodd" clip-rule="evenodd"
              d="M45.7008 16.5386L43.0428 13.1049L43.0453 13.1036L38.7695 4.57354C38.5272 4.0908 38.0345 3.78625 37.4958 3.78625H31.4147V2.3566C31.4147 1.56693 30.7766 0.927002 29.9895 0.927002H6.23475C5.44748 0.927002 4.80951 1.56702 4.80951 2.3566C4.80951 3.14618 5.44757 3.7862 6.23475 3.7862H28.5641V13.7937C28.5641 14.5833 29.2022 15.2232 29.9894 15.2232H41.0738L43.1495 17.9052V25.2784H40.4632C39.8454 22.7906 37.5991 20.9419 34.9304 20.9419C32.2616 20.9419 30.0153 22.7907 29.3975 25.2786H20.9844C20.3666 22.7907 18.1203 20.9419 15.4515 20.9419C12.7827 20.9419 10.5364 22.7907 9.91864 25.2786H6.23475C5.44748 25.2786 4.80951 25.9186 4.80951 26.7082C4.80951 27.4978 5.44757 28.1378 6.23475 28.1378H9.94321C10.5941 30.5773 12.8169 32.379 15.4515 32.379C18.086 32.379 20.3089 30.5774 20.9598 28.1378H29.4221C30.073 30.5774 32.2958 32.379 34.9304 32.379C37.5655 32.379 39.7881 30.5772 40.4388 28.1376H44.5747C45.362 28.1376 46 27.4976 46 26.708V17.4155C46 17.0981 45.8946 16.7893 45.7008 16.5386ZM36.6168 6.64554L39.4831 12.3641H31.4147V6.64554H36.6168ZM15.4515 29.5197C13.8794 29.5197 12.6009 28.2373 12.6009 26.6605C12.6009 25.0836 13.8794 23.8012 15.4515 23.8012C17.0231 23.8012 18.3021 25.0836 18.3021 26.6605C18.3021 28.2374 17.0236 29.5197 15.4515 29.5197ZM34.9304 29.5197C33.3583 29.5197 32.0798 28.2373 32.0798 26.6605C32.0798 25.0836 33.3583 23.8012 34.9304 23.8012C36.5024 23.8012 37.781 25.0836 37.781 26.6605C37.781 28.2374 36.5024 29.5197 34.9304 29.5197ZM4.5243 18.035H11.0806C11.8678 18.035 12.5059 18.675 12.5058 19.4646C12.5058 20.2542 11.8678 20.8942 11.0805 20.8942H4.5243C3.73712 20.8942 3.09906 20.2543 3.09906 19.4646C3.09906 18.675 3.73703 18.035 4.5243 18.035ZM14.3588 12.4117H2.19636C1.40918 12.4117 0.771118 13.0518 0.771118 13.8414C0.771118 14.6311 1.40918 15.271 2.19636 15.271H14.3588C15.146 15.271 15.784 14.631 15.784 13.8414C15.784 13.0518 15.146 12.4117 14.3588 12.4117ZM4.5243 6.78845H16.6867C17.474 6.78845 18.112 7.42847 18.112 8.21805C18.112 9.00764 17.474 9.64765 16.6867 9.64765H4.5243C3.73712 9.64765 3.09906 9.00772 3.09906 8.21805C3.09906 7.42847 3.73703 6.78845 4.5243 6.78845Z"/>
    </symbol>

    <symbol id="adv-icon3" viewBox="0 0 34 42">
        <path fill-rule="evenodd" clip-rule="evenodd"
              d="M0.533203 7.27995C0.533203 3.26583 3.79903 0 7.81315 0H33.4519V41.9263H4.95512C2.48998 41.9291 0.482924 39.8883 0.53525 37.4225H0.533203V7.27995ZM4.95512 39.4697H30.9953V35.5391H4.95512C3.87151 35.5391 2.98982 36.4208 2.98982 37.5044C2.98982 38.588 3.87151 39.4697 4.95512 39.4697ZM2.98982 33.5448C3.58228 33.2495 4.24942 33.0825 4.95512 33.0825H30.9953V2.45662H7.81315C5.15362 2.45662 2.98982 4.62041 2.98982 7.27995V33.5448ZM13.3895 6.30533H20.5956V8.76195H13.3895V6.30533ZM20.6775 18.0152V20.4719H28.0474V18.0152H25.5907V12.5288H8.3944V18.0152H5.93778V20.4719H13.3076V18.0152H10.851V14.9854H15.7643V21.8449L11.0967 25.5593V28.9062H22.8885V25.5593L18.2209 21.8449V14.9854H23.1341V18.0152H20.6775ZM13.9231 26.4496L16.9926 24.0069L20.062 26.4496H13.9231Z"/>
    </symbol>

    <symbol id="adv-icon4" viewBox="0 0 40 41">
        <path d="M38.2532 16.3163H37.2921C36.4062 7.14571 28.9511 0 19.9582 0C10.9653 0 3.50188 7.14571 2.61596 16.3163H1.74676C0.785625 16.3163 0 17.1029 0 18.0651C0 19.0273 0.785625 19.8139 1.74676 19.8139H2.59925C3.38487 29.7376 11.0489 41 19.9582 41C28.8675 41 36.5316 29.7376 37.3172 19.8055H38.1697C39.1308 19.8055 40 19.019 40 18.0567C40 17.0945 39.2144 16.3163 38.2532 16.3163ZM22.2232 3.59796V9.33796H17.8688V3.56449C18.5541 3.45571 19.2478 3.39714 19.9582 3.39714C20.7271 3.40551 21.4877 3.47245 22.2232 3.59796ZM14.3836 4.61878V10.9027C14.3836 11.8649 15.1692 12.6514 16.1304 12.6514H23.8863C24.7555 12.6514 25.5412 11.9569 25.7167 10.9947V4.69408C30.0878 6.76918 33.272 11.1286 33.8822 16.308H6.03427C6.6611 11.0616 9.91224 6.66041 14.3836 4.61878ZM19.9582 37.5945C13.0213 37.5945 6.7781 28.0306 6.00919 19.7971H33.9072C33.1383 28.039 26.8951 37.5945 19.9582 37.5945Z"/>
    </symbol>

    <symbol id="adv-icon5" viewBox="0 0 41 41">
        <path fill-rule="evenodd" clip-rule="evenodd"
              d="M3.20762 21.5621C3.67445 22.0304 3.67445 22.7896 3.20762 23.2578C2.74088 23.726 1.98397 23.726 1.51715 23.2578C0.538788 22.2765 0 20.9717 0 19.5838C0 18.196 0.538788 16.8912 1.51715 15.91C2.20711 15.2178 3.0578 14.7462 3.98453 14.5277V10.705C3.98453 10.0428 4.51973 9.50598 5.17988 9.50598H9.64255V8.30696C9.64255 7.64479 10.1778 7.10795 10.8379 7.10795H12.847C13.0393 6.70037 13.2633 6.31053 13.5177 5.94067L12.5138 4.19651C12.1836 3.62298 12.3795 2.88974 12.9513 2.55865L17.0921 0.160627C17.3667 0.00155756 17.6931 -0.0413671 17.9992 0.0408053C18.3053 0.123138 18.5665 0.324092 18.725 0.599466L19.7273 2.34075C20.1764 2.3023 20.6153 2.30198 21.0742 2.34123L22.0767 0.599466C22.2352 0.324092 22.4962 0.123138 22.8024 0.0408053C23.1086 -0.0413671 23.435 0.0016375 23.7095 0.160627L27.8503 2.55865C28.4221 2.88966 28.618 3.62298 28.2878 4.19651L27.2839 5.94051C27.5383 6.31037 27.7623 6.70013 27.9546 7.10787H29.9636C30.6238 7.10787 31.159 7.64471 31.159 8.30688V9.5059H35.6217C36.2818 9.5059 36.817 10.0427 36.817 10.7049V14.5276C37.7437 14.7462 38.5944 15.2178 39.2844 15.9099C40.2628 16.8912 40.8015 18.196 40.8015 19.5838C40.8015 20.9717 40.2628 22.2765 39.2843 23.2578C39.051 23.4919 38.745 23.609 38.4391 23.609C38.1333 23.609 37.8273 23.4919 37.5939 23.2578C37.1271 22.7895 37.1271 22.0303 37.5939 21.5621C38.6814 20.4714 38.6814 18.6963 37.5939 17.6056C37.0671 17.0772 36.3667 16.7861 35.6217 16.7861C34.8766 16.7861 34.1762 17.0772 33.6494 17.6056C32.5619 18.6963 32.5619 20.4714 33.6494 21.5621C34.1162 22.0304 34.1162 22.7896 33.6494 23.2578C33.1826 23.726 32.4257 23.726 31.9589 23.2578C30.9806 22.2765 30.4418 20.9717 30.4418 19.5838C30.4418 18.196 30.9806 16.8912 31.9589 15.91C32.6489 15.2178 33.4996 14.7462 34.4263 14.5277V11.904H31.159V13.103C31.159 13.7652 30.6238 14.302 29.9636 14.302H27.9545C27.7621 14.7097 27.5382 15.0995 27.2837 15.4694L28.2877 17.2135C28.6178 17.787 28.4219 18.5202 27.8502 18.8513L23.7094 21.2494C23.5261 21.3555 23.3197 21.41 23.1117 21.41C23.008 21.41 22.904 21.3965 22.8022 21.3692C22.4962 21.2868 22.235 21.0859 22.0765 20.8105L21.074 19.0687C20.6154 19.1079 20.1764 19.1075 19.7271 19.0692L18.7249 20.8105C18.5664 21.0859 18.3053 21.2868 17.9991 21.3692C17.6928 21.4513 17.3665 21.4083 17.092 21.2494L12.9512 18.8513C12.3794 18.5203 12.1836 17.787 12.5137 17.2135L13.5177 15.4693C13.2632 15.0995 13.0392 14.7096 12.8469 14.3019H10.8379C10.1778 14.3019 9.64255 13.7651 9.64255 13.1029V11.9039H6.37524V14.5276C7.30196 14.7462 8.15266 15.2178 8.84262 15.9099C9.82098 16.8912 10.3598 18.196 10.3598 19.5838C10.3598 20.9717 9.82098 22.2765 8.84254 23.2578C8.60921 23.4919 8.30319 23.609 7.99734 23.609C7.69149 23.609 7.38556 23.4919 7.15214 23.2578C6.68532 22.7895 6.68532 22.0303 7.15214 21.5621C8.2396 20.4714 8.2396 18.6963 7.15214 17.6056C6.62531 17.0772 5.92491 16.7861 5.17988 16.7861C4.43486 16.7861 3.73446 17.0772 3.20762 17.6056C2.12017 18.6963 2.12017 20.4714 3.20762 21.5621ZM13.6454 9.50598H12.0333V11.904H13.6453C14.1518 11.904 14.6032 12.2241 14.7722 12.7029C15.0188 13.4018 15.3849 14.0388 15.8602 14.5962C16.1895 14.9824 16.2404 15.5349 15.987 15.9751L15.1818 17.3742L17.2521 18.5732L18.0572 17.1745C18.3103 16.7348 18.8125 16.503 19.3095 16.5949C20.074 16.7364 20.7279 16.7364 21.4919 16.5949C21.5646 16.5814 21.6373 16.5749 21.7094 16.5749C22.1308 16.5749 22.5281 16.799 22.7442 17.1745L23.5493 18.5732L25.6197 17.3742L24.8144 15.9751C24.5611 15.5349 24.6119 14.9824 24.9413 14.5961C25.4164 14.039 25.7824 13.402 26.0293 12.7028C26.1983 12.224 26.6498 11.904 27.1561 11.904H28.7683V9.50598H27.1561C26.6498 9.50598 26.1983 9.186 26.0293 8.70727C25.7825 8.00801 25.4164 7.37101 24.9413 6.81395C24.6119 6.42771 24.561 5.87521 24.8144 5.43501L25.6197 4.03584L23.5493 2.83682L22.7443 4.23559C22.4913 4.67523 21.9898 4.90712 21.492 4.8152C20.7273 4.67347 20.0746 4.67347 19.3096 4.8152C18.8125 4.90712 18.3104 4.67531 18.0573 4.23559L17.2522 2.83682L15.1818 4.03584L15.9871 5.43501C16.2404 5.87512 16.1896 6.42763 15.8603 6.81387C15.385 7.37125 15.019 8.00825 14.7722 8.70711C14.6033 9.18592 14.1518 9.50598 13.6454 9.50598ZM20.4007 14.302C22.3781 14.302 23.9868 12.6884 23.9868 10.705C23.9868 8.72156 22.3781 7.10793 20.4007 7.10793C18.4234 7.10793 16.8147 8.72156 16.8147 10.705C16.8147 12.6884 18.4234 14.302 20.4007 14.302ZM20.4007 9.50596C21.0599 9.50596 21.5961 10.0438 21.5961 10.705C21.5961 11.3661 21.0599 11.904 20.4007 11.904C19.7416 11.904 19.2054 11.3661 19.2054 10.705C19.2054 10.0438 19.7416 9.50596 20.4007 9.50596ZM37.1358 32.2077V26.1384C37.1358 25.4763 36.6006 24.9394 35.9405 24.9394H28.7683C28.1082 24.9394 27.573 25.4763 27.573 26.1384V32.1335H25.1822V26.1384C25.1822 25.4763 24.647 24.9394 23.9869 24.9394H16.8147C16.1546 24.9394 15.6194 25.4763 15.6194 26.1384V32.1335H13.2287V26.1384C13.2287 25.4763 12.6935 24.9394 12.0333 24.9394H4.86115C4.20099 24.9394 3.66579 25.4763 3.66579 26.1384V32.2077C1.62834 32.5847 0.0797188 34.3788 0.0797188 36.5299C0.0797188 38.954 2.04592 40.9263 4.4627 40.9263H36.3389C38.7557 40.9263 40.7219 38.954 40.7219 36.5299C40.7219 34.3788 39.1733 32.5847 37.1358 32.2077ZM16.4988 34.5315C16.1921 35.1316 16.0178 35.8105 16.0178 36.5299C16.0178 37.2493 16.1921 37.9282 16.4988 38.5282H8.36474C8.67139 37.9282 8.84568 37.2493 8.84568 36.5299C8.84568 35.8105 8.67139 35.1316 8.36474 34.5315H16.4988ZM18.4085 36.5299C18.4085 35.428 19.3023 34.5315 20.4008 34.5315C21.4993 34.5315 22.3931 35.428 22.3931 36.5299C22.3931 37.6318 21.4993 38.5282 20.4008 38.5282C19.3023 38.5282 18.4085 37.6318 18.4085 36.5299ZM24.3028 34.5315H32.4369C32.1302 35.1316 31.9559 35.8105 31.9559 36.5299C31.9559 37.2493 32.1302 37.9282 32.4369 38.5282H24.3028C24.6095 37.9282 24.7838 37.2493 24.7838 36.5299C24.7838 35.8105 24.6095 35.1316 24.3028 34.5315ZM29.9637 27.3374H34.7451V32.1335H29.9637V27.3374ZM18.0101 27.3374H22.7915V32.1335H18.0101V27.3374ZM6.05651 27.3374H10.8379V32.1335H6.05651V27.3374ZM2.47043 36.5299C2.47043 35.428 3.36416 34.5315 4.4627 34.5315C5.56123 34.5315 6.45496 35.428 6.45496 36.5299C6.45496 37.6318 5.56123 38.5282 4.4627 38.5282C3.36416 38.5282 2.47043 37.6318 2.47043 36.5299ZM36.3389 38.5282C35.2404 38.5282 34.3466 37.6318 34.3466 36.5299C34.3466 35.428 35.2404 34.5315 36.3389 34.5315C37.4374 34.5315 38.3312 35.428 38.3312 36.5299C38.3312 37.6318 37.4374 38.5282 36.3389 38.5282Z"/>
    </symbol>

    <symbol id="adv-icon6" viewBox="0 0 40 40">
        <path fill-rule="evenodd" clip-rule="evenodd"
              d="M29.8395 20.6816V3.43421C29.8395 1.53608 28.2295 0 26.3289 0H10.3025C10.0122 0 9.7137 0.114779 9.48986 0.338689L0.331974 9.5729C0.121571 9.78498 0 10.0799 0 10.3789V35.6395C0 37.5331 1.54059 39.0737 3.43421 39.0737H6.64779H29.8395C34.8941 39.0737 39.0737 34.9119 39.0737 29.8395C39.0737 24.7898 34.9312 20.6816 29.8395 20.6816ZM9.15789 3.92469V9.23421H3.89226L9.15789 3.92469ZM3.43421 36.7842C2.803 36.7842 2.28947 36.2707 2.28947 35.6395V11.5237H10.3026C10.9348 11.5237 11.4474 11.0111 11.4474 10.3789V2.28947H26.3289C26.9794 2.28947 27.55 2.82437 27.55 3.43421V20.9666C25.1202 21.5835 23.0735 23.1588 21.8449 25.2605H5.72368C5.09148 25.2605 4.57895 25.7731 4.57895 26.4053C4.57895 27.0375 5.09148 27.55 5.72368 27.55H20.8974C20.7068 28.282 20.6053 29.0492 20.6053 29.8395H5.72368C5.09148 29.8395 4.57895 30.352 4.57895 30.9842C4.57895 31.6164 5.09148 32.1289 5.72368 32.1289H20.8956C21.3583 33.9191 22.3588 35.5325 23.7866 36.7842H3.43421ZM29.8395 36.7842C26.075 36.7842 22.8947 33.6039 22.8947 29.8395C22.8947 26.0522 26.0101 22.971 29.8395 22.971C33.6688 22.971 36.7842 26.0522 36.7842 29.8395C36.7842 33.6039 33.6039 36.7842 29.8395 36.7842ZM14.8816 6.9447H24.0394C24.6716 6.9447 25.1842 7.45724 25.1842 8.08944C25.1842 8.72164 24.6716 9.23417 24.0394 9.23417H14.8816C14.2494 9.23417 13.7368 8.72164 13.7368 8.08944C13.7368 7.45724 14.2494 6.9447 14.8816 6.9447ZM14.8816 11.5237H24.0394C24.6716 11.5237 25.1842 12.0362 25.1842 12.6684C25.1842 13.3006 24.6716 13.8132 24.0394 13.8132H14.8816C14.2494 13.8132 13.7368 13.3006 13.7368 12.6684C13.7368 12.0362 14.2494 11.5237 14.8816 11.5237ZM24.0394 16.1027H5.72359C5.09139 16.1027 4.57886 16.6152 4.57886 17.2474C4.57886 17.8796 5.09139 18.3921 5.72359 18.3921H24.0394C24.6716 18.3921 25.1841 17.8796 25.1841 17.2474C25.1841 16.6152 24.6716 16.1027 24.0394 16.1027ZM5.72359 20.6815H19.8895C20.5217 20.6815 21.0342 21.1941 21.0342 21.8263C21.0342 22.4585 20.5217 22.971 19.8895 22.971H5.72359C5.09139 22.971 4.57886 22.4585 4.57886 21.8263C4.57886 21.1941 5.09139 20.6815 5.72359 20.6815ZM32.5472 27.8786C32.998 27.4353 33.7229 27.4413 34.1661 27.8921C34.6094 28.3428 34.6035 29.0676 34.1527 29.5109L29.4975 34.0898C29.0544 34.5256 28.3449 34.5282 27.8987 34.0963L25.5329 31.8068C25.0786 31.3672 25.0667 30.6425 25.5063 30.1882C25.946 29.7339 26.6707 29.722 27.125 30.1616L28.6882 31.6744L32.5472 27.8786Z"/>
    </symbol>

    <symbol id="adv-icon7" viewBox="0 0 41 41">
        <path fill-rule="evenodd" clip-rule="evenodd"
              d="M32.4533 0C32.769 0 33.0719 0.124585 33.2964 0.34659L40.5704 7.54067C40.798 7.7658 40.9263 8.07273 40.9263 8.3931V39.7273C40.9263 40.3896 40.3896 40.9263 39.7273 40.9263H1.19901C0.536746 40.9263 0 40.3896 0 39.7273V8.3931C0 8.07273 0.12802 7.7658 0.355957 7.54067L7.62997 0.34659C7.85448 0.124585 8.15735 0 8.47303 0H32.4533ZM16.8661 22.8612C16.8661 23.5235 16.3294 24.0602 15.6671 24.0602C15.0048 24.0602 14.4681 23.5235 14.4681 22.8612V21.6622H12.0701V28.8563H19.2642V21.6622H16.8661V22.8612ZM24.0602 22.8612V21.6622H21.6622V28.8563H28.8563V21.6622H26.4582V22.8612C26.4582 23.5235 25.9215 24.0602 25.2592 24.0602C24.597 24.0602 24.0602 23.5235 24.0602 22.8612ZM19.2642 31.2543H16.8661V38.5283H24.0602V31.2543H21.6622V32.4533C21.6622 33.1156 21.1254 33.6523 20.4632 33.6523C19.8009 33.6523 19.2642 33.1156 19.2642 32.4533V31.2543ZM28.8563 31.2543H26.4582V38.5283H33.6523V31.2543H31.2543V32.4533C31.2543 33.1156 30.7175 33.6523 30.0553 33.6523C29.393 33.6523 28.8563 33.1156 28.8563 32.4533V31.2543ZM31.2543 28.8563H33.6523V14.3882H7.27402V28.8563H9.67204V20.4632C9.67204 19.8009 10.2088 19.2642 10.8711 19.2642H30.0553C30.7175 19.2642 31.2543 19.8009 31.2543 20.4632V28.8563ZM9.67204 32.4533V31.2543H7.27402V38.5283H14.4681V31.2543H12.0701V32.4533C12.0701 33.1156 11.5333 33.6523 10.8711 33.6523C10.2088 33.6523 9.67204 33.1156 9.67204 32.4533ZM36.0503 38.5283H38.5283V8.89362L31.9606 2.39803H8.96575L2.39803 8.89362V38.5283H4.87599V13.1892C4.87599 12.5269 5.41273 11.9901 6.075 11.9901H34.8513C35.5136 11.9901 36.0503 12.5269 36.0503 13.1892V38.5283ZM8.47303 7.19409H13.2691C13.9314 7.19409 14.4681 7.73084 14.4681 8.3931C14.4681 9.05537 13.9314 9.59212 13.2691 9.59212H8.47303C7.81076 9.59212 7.27402 9.05537 7.27402 8.3931C7.27402 7.73084 7.81076 7.19409 8.47303 7.19409ZM22.8612 7.19409H18.0651C17.4028 7.19409 16.8661 7.73084 16.8661 8.3931C16.8661 9.05537 17.4028 9.59212 18.0651 9.59212H22.8612C23.5234 9.59212 24.0602 9.05537 24.0602 8.3931C24.0602 7.73084 23.5234 7.19409 22.8612 7.19409ZM27.6573 9.59212C26.995 9.59212 26.4582 9.05537 26.4582 8.3931C26.4582 7.73084 26.995 7.19409 27.6573 7.19409H32.4533C33.1156 7.19409 33.6523 7.73084 33.6523 8.3931C33.6523 9.05537 33.1156 9.59212 32.4533 9.59212H27.6573Z"/>
    </symbol>

    <symbol id="whatsapp" viewBox="0 0 17 18">
        <path fill-rule="evenodd" clip-rule="evenodd"
              d="M14.5231 2.61584C12.925 0.929883 10.7997 0.000988768 8.53555 0C3.86998 0 0.0728768 4.00111 0.0710001 8.91881C0.0703746 10.4908 0.460093 12.0254 1.20085 13.3781L0 18L4.48719 16.7596C5.72359 17.4703 7.11555 17.8449 8.53211 17.8453H8.53566C13.2007 17.8453 16.9982 13.8439 17 8.92595C17.0009 6.54258 16.1213 4.3017 14.5231 2.61584ZM8.53555 16.339H8.53263C7.27027 16.3384 6.0322 15.9809 4.95187 15.3056L4.69508 15.1449L2.03231 15.881L2.74305 13.1453L2.57571 12.8648C1.87144 11.6844 1.49955 10.3201 1.50018 8.91936C1.50164 4.8319 4.65776 1.50645 8.53837 1.50645C10.4175 1.5071 12.184 2.27922 13.5122 3.68053C14.8405 5.08184 15.5716 6.94446 15.5709 8.9254C15.5693 13.0132 12.4133 16.339 8.53555 16.339ZM12.3946 10.7866C12.1831 10.675 11.1433 10.136 10.9493 10.0615C10.7556 9.98712 10.6145 9.9501 10.4736 10.1731C10.3326 10.3961 9.9273 10.8982 9.80386 11.0469C9.68042 11.1956 9.55718 11.2143 9.34564 11.1027C9.1341 10.9912 8.45267 10.7557 7.64477 9.99646C7.01609 9.40551 6.59165 8.67568 6.46821 8.45266C6.34497 8.22942 6.46716 8.12043 6.561 7.99783C6.78995 7.69823 7.01921 7.38413 7.08969 7.23549C7.16028 7.08673 7.12493 6.95654 7.07197 6.84503C7.01921 6.73352 6.59624 5.63654 6.42004 5.19016C6.24822 4.75576 6.07401 4.81443 5.9441 4.80762C5.82086 4.80114 5.6798 4.79982 5.53874 4.79982C5.39778 4.79982 5.16862 4.85552 4.9747 5.07876C4.78088 5.30189 4.23457 5.84099 4.23457 6.93798C4.23457 8.03496 4.99243 9.0947 5.09814 9.24346C5.20386 9.39221 6.58956 11.6433 8.71112 12.6086C9.21574 12.8384 9.60962 12.9754 9.91687 13.0781C10.4236 13.2478 10.8845 13.2238 11.249 13.1665C11.6554 13.1024 12.5002 12.6272 12.6766 12.1067C12.8528 11.5861 12.8528 11.1399 12.7998 11.0469C12.7471 10.9539 12.606 10.8982 12.3946 10.7866Z"/>
    </symbol>

    <symbol id="instagram" viewBox="0 0 17 17">
        <path d="M16.9568 4.99806C16.917 4.09478 16.7709 3.47379 16.5616 2.93569C16.3457 2.36451 16.0135 1.85313 15.5783 1.42802C15.1531 0.996291 14.6383 0.660821 14.0736 0.448331C13.5323 0.239084 12.9144 0.0930131 12.011 0.0531874C11.1008 0.00998885 10.8118 0 8.50331 0C6.19479 0 5.90584 0.00998885 4.99902 0.0498146C4.09557 0.0896403 3.47445 0.235841 2.93638 0.444958C2.36496 0.660821 1.85348 0.992919 1.42829 1.42802C0.996482 1.85313 0.661077 2.36788 0.448417 2.93244C0.23913 3.47379 0.0930309 4.09141 0.0531976 4.99469C0.00999076 5.90471 0 6.19361 0 8.50169C0 10.8098 0.00999076 11.0987 0.0498241 12.0053C0.0896574 12.9086 0.235886 13.5296 0.445173 14.0677C0.661077 14.6389 0.996482 15.1502 1.42829 15.5754C1.85348 16.0071 2.36833 16.3426 2.933 16.555C3.47445 16.7643 4.09219 16.9104 4.99577 16.9502C5.90247 16.9901 6.19155 17 8.50007 17C10.8086 17 11.0975 16.9901 12.0044 16.9502C12.9078 16.9104 13.5289 16.7643 14.067 16.555C15.2097 16.1133 16.1132 15.21 16.555 14.0677C16.7641 13.5263 16.9103 12.9086 16.9502 12.0053C16.99 11.0987 17 10.8098 17 8.50169C17 6.19361 16.9966 5.90471 16.9568 4.99806ZM15.4256 11.9389C15.389 12.7691 15.2495 13.2175 15.1333 13.5164C14.8476 14.257 14.2597 14.8447 13.5189 15.1304C13.22 15.2466 12.7683 15.3861 11.9412 15.4225C11.0443 15.4625 10.7754 15.4724 8.50668 15.4724C6.238 15.4724 5.96565 15.4625 5.07207 15.4225C4.24166 15.3861 3.79325 15.2466 3.4943 15.1304C3.12568 14.9942 2.79015 14.7783 2.5178 14.496C2.23547 14.2204 2.01956 13.8883 1.88332 13.5197C1.76707 13.2208 1.62759 12.7691 1.59113 11.9423C1.55116 11.0456 1.5413 10.7766 1.5413 8.5083C1.5413 6.24005 1.55116 5.96776 1.59113 5.07447C1.62759 4.24423 1.76707 3.7959 1.88332 3.49701C2.01956 3.12833 2.23547 2.79299 2.52118 2.52057C2.79677 2.23828 3.12893 2.02242 3.49768 1.88634C3.79662 1.7701 4.24841 1.63065 5.07544 1.59407C5.97227 1.55424 6.24137 1.54425 8.50993 1.54425C10.782 1.54425 11.051 1.55424 11.9445 1.59407C12.7749 1.63065 13.2234 1.7701 13.5223 1.88634C13.8909 2.02242 14.2265 2.23828 14.4988 2.52057C14.7811 2.79623 14.997 3.12833 15.1333 3.49701C15.2495 3.7959 15.389 4.24747 15.4256 5.07447C15.4654 5.97113 15.4754 6.24005 15.4754 8.5083C15.4754 10.7766 15.4654 11.0422 15.4256 11.9389Z"/>
        <path d="M8.50331 4.13461C6.09191 4.13461 4.1354 6.09061 4.1354 8.50168C4.1354 10.9128 6.09191 12.8688 8.50331 12.8688C10.9149 12.8688 12.8712 10.9128 12.8712 8.50168C12.8712 6.09061 10.9149 4.13461 8.50331 4.13461ZM8.50331 11.3345C6.93892 11.3345 5.66996 10.0659 5.66996 8.50168C5.66996 6.93745 6.93892 5.66887 8.50331 5.66887C10.0678 5.66887 11.3367 6.93745 11.3367 8.50168C11.3367 10.0659 10.0678 11.3345 8.50331 11.3345Z"/>
        <path d="M14.0637 3.96195C14.0637 4.52495 13.6072 4.98146 13.0439 4.98146C12.4808 4.98146 12.0242 4.52495 12.0242 3.96195C12.0242 3.39881 12.4808 2.94243 13.0439 2.94243C13.6072 2.94243 14.0637 3.39881 14.0637 3.96195Z"/>
    </symbol>

    <symbol id="pay-icon1" viewBox="0 0 90 77">
        <path d="M89.8738 43.5705C89.8736 43.5701 89.8736 43.5699 89.8733 43.5694L72.881 1.10869C72.5203 0.206514 71.4928 -0.233917 70.5862 0.124977C70.5855 0.125197 70.5849 0.125416 70.5842 0.125856L1.64836 27.4431C1.36722 27.564 1.12342 27.757 0.941665 28.0023C0.368362 28.2987 0.00618354 28.8855 0 29.5284V75.2418C0 76.2128 0.791051 77 1.76673 77H75.9692C76.9449 77 77.7359 76.2128 77.7359 75.2418V50.2752L88.8875 45.8551C89.7938 45.4953 90.2353 44.4725 89.8738 43.5705ZM74.2025 73.4836H3.53345V31.2866H74.2025V73.4836ZM29.4778 27.779L59.0599 16.0482C61.7 18.8099 65.3582 20.3795 69.1885 20.3945L72.1389 27.779H29.4778ZM77.7359 46.4986V29.5284C77.7359 28.5574 76.9449 27.7702 75.9692 27.7702H75.9409L72.1972 18.413C72.1557 18.335 72.1074 18.2607 72.0524 18.1914C71.8629 17.3447 71.0749 16.7669 70.2061 16.8376C66.6422 17.1609 63.1558 15.6669 60.9432 12.8676C60.3926 12.1913 59.4249 12.0232 58.6765 12.4738C58.5926 12.4836 58.5093 12.499 58.4274 12.5195L22.312 26.8313C21.8749 27.0018 21.5253 27.3401 21.342 27.7702H10.3742L70.2521 4.04314L85.9388 43.2424L77.7359 46.4986Z"/>
        <path d="M8.32834 61.6139C11.7584 62.6229 14.4425 65.2908 15.4606 68.703C15.6839 69.4478 16.3722 69.9582 17.1531 69.9584C17.2448 69.9527 17.3358 69.939 17.4252 69.9179C17.5045 69.9404 17.5855 69.9568 17.6673 69.9672H60.0687C60.1415 69.9577 60.2135 69.943 60.2842 69.9232C61.1669 70.1368 62.0565 69.5982 62.2713 68.7197C62.272 68.7164 62.2729 68.7133 62.2735 68.7101C63.289 65.2943 65.9735 62.6227 69.4058 61.6122C70.2382 61.359 70.7554 60.5335 70.6178 59.6781C70.6414 59.5929 70.6584 59.5058 70.669 59.4179V45.3523C70.6586 45.2641 70.641 45.1771 70.616 45.092C70.7545 44.2364 70.2371 43.4105 69.404 43.158C65.9717 42.1477 63.2879 39.475 62.2753 36.0584C62.0196 35.2243 61.1819 34.7083 60.3178 34.8522C60.2361 34.8296 60.1528 34.8131 60.0687 34.803H17.6673C17.5783 34.8135 17.4901 34.8311 17.404 34.8557C16.5447 34.7195 15.7157 35.234 15.4606 36.0619C14.4445 39.477 11.7602 42.1477 8.32834 43.158C7.496 43.4112 6.97879 44.2367 7.11637 45.092C7.0934 45.1775 7.07684 45.2643 7.0669 45.3523V59.4179C7.07706 59.5006 7.09362 59.5823 7.11637 59.6623C6.9715 60.5232 7.48981 61.3579 8.32834 61.6139ZM10.6004 46.0661C14.1479 44.6481 16.9597 41.8499 18.3845 38.3194H59.3496C60.7751 41.8499 63.5875 44.6481 67.1356 46.0661V58.7041C63.5891 60.1236 60.7778 62.9214 59.3514 66.4508H18.3845C16.9581 62.9214 14.1468 60.1236 10.6004 58.7041V46.0661Z"/>
        <path d="M38.868 62.9343C44.7225 62.9343 49.4683 58.2113 49.4683 52.3851C49.4683 46.5588 44.7225 41.8358 38.868 41.8358C33.0135 41.8358 28.2676 46.5588 28.2676 52.3851C28.2733 58.2089 33.0159 62.9286 38.868 62.9343ZM38.868 45.3523C42.7709 45.3523 45.9349 48.501 45.9349 52.3851C45.9349 56.2692 42.7709 59.4179 38.868 59.4179C34.965 59.4179 31.8011 56.2692 31.8011 52.3851C31.8011 48.501 34.965 45.3523 38.868 45.3523Z"/>
        <path d="M19.434 55.0224C20.8975 55.0224 22.0841 53.8415 22.0841 52.3851C22.0841 50.9286 20.8975 49.7478 19.434 49.7478C17.9705 49.7478 16.7839 50.9286 16.7839 52.3851C16.7839 53.8418 17.9705 55.0224 19.434 55.0224ZM19.434 51.506C19.9218 51.506 20.3173 51.8996 20.3173 52.3851C20.3173 52.8706 19.9218 53.2642 19.434 53.2642C18.9461 53.2642 18.5506 52.8706 18.5506 52.3851C18.5506 51.8996 18.9461 51.506 19.434 51.506Z"/>
        <path d="M58.3019 55.0224C59.7655 55.0224 60.952 53.8415 60.952 52.3851C60.952 50.9286 59.7655 49.7478 58.3019 49.7478C56.8384 49.7478 55.6519 50.9286 55.6519 52.3851C55.6519 53.8418 56.8384 55.0224 58.3019 55.0224ZM58.3019 51.506C58.7898 51.506 59.1853 51.8996 59.1853 52.3851C59.1853 52.8706 58.7898 53.2642 58.3019 53.2642C57.8141 53.2642 57.4186 52.8706 57.4186 52.3851C57.4186 51.8996 57.8141 51.506 58.3019 51.506Z"/>
    </symbol>

    <symbol id="pay-icon2" viewBox="0 0 48 77">
        <path d="M41.0747 0H6.92471C3.10631 0 0 3.10592 0 6.92384V70.0762C0 73.8941 3.10631 77 6.92471 77H41.0753C44.8931 77 48 73.8941 48 70.0762V6.92384C47.9994 3.10592 44.8931 0 41.0747 0ZM6.92471 4.51172H41.0753C42.4055 4.51172 43.4877 5.59383 43.4877 6.92384V12.1581H4.51228V6.92384C4.51228 5.59383 5.59453 4.51172 6.92471 4.51172ZM4.51228 53.9826V16.6699H43.4877V53.9826H4.51228ZM41.0747 72.4883H6.92471C5.59453 72.4883 4.51228 71.4062 4.51228 70.0762V58.4943H43.4877V70.0762C43.4871 71.4062 42.4049 72.4883 41.0747 72.4883Z"/>
        <path d="M21.2194 10.6078H26.7805C28.026 10.6078 29.0366 9.59798 29.0366 8.35197C29.0366 7.10655 28.026 6.09611 26.7805 6.09611H21.2194C19.9733 6.09611 18.9633 7.10655 18.9633 8.35197C18.9633 9.59798 19.9733 10.6078 21.2194 10.6078Z"/>
        <path d="M27.5432 65.3894C27.5432 67.3462 25.9568 68.9324 23.9998 68.9324C22.0427 68.9324 20.4563 67.3462 20.4563 65.3894C20.4563 63.4326 22.0427 61.8464 23.9998 61.8464C25.9568 61.8464 27.5432 63.4326 27.5432 65.3894Z"/>
        <path d="M20.4057 31.0128C21.5902 31.9774 22.277 33.5137 22.2905 35.2285C22.304 36.9867 21.5896 38.6446 20.3787 39.662C19.4251 40.4639 19.3017 41.8868 20.1037 42.8402C20.5502 43.3713 21.1889 43.6445 21.8317 43.6445C22.3446 43.6445 22.8598 43.4712 23.2829 43.1152C25.5443 41.2141 26.8269 38.3267 26.8028 35.1932C26.7787 32.1302 25.4861 29.3309 23.2558 27.5145C22.2899 26.7273 20.8687 26.8724 20.0814 27.8388C19.2947 28.8046 19.4398 30.2256 20.4057 31.0128Z"/>
        <path d="M13.3459 40.0021C13.7572 40.3211 14.2443 40.4756 14.7272 40.4756C15.4005 40.4756 16.0668 40.176 16.5116 39.6026C18.592 36.922 18.6167 33.7292 16.5779 31.0621C15.8218 30.0722 14.4058 29.8836 13.4158 30.6397C12.4258 31.3964 12.2366 32.8121 12.9928 33.802C13.7748 34.8242 13.7601 35.7888 12.9464 36.8369C12.1826 37.8209 12.3612 39.2384 13.3459 40.0021Z"/>
        <path d="M27.0561 26.0175C29.5444 28.0942 30.9868 31.4181 31.0144 35.1373C31.0426 38.9282 29.5532 42.4865 27.0309 44.656C26.0861 45.4685 25.9792 46.8931 26.7912 47.8371C27.2377 48.3558 27.8681 48.622 28.5027 48.622C29.0238 48.622 29.5473 48.4428 29.9733 48.0762C33.4879 45.0531 35.5643 40.2036 35.5261 35.1044C35.4891 30.0563 33.4556 25.4824 29.9474 22.5544C28.9909 21.7555 27.5685 21.8841 26.77 22.8399C25.9715 23.7963 26.0996 25.2192 27.0561 26.0175Z"/>
    </symbol>

    <symbol id="pay-icon3" viewBox="0 0 90 66">
        <path d="M78.1379 43.6936C75.5628 41.9601 72.1857 41.9601 69.5896 43.6936C68.3231 42.8373 66.8457 42.3987 65.326 42.3987C61.1046 42.3987 57.7064 45.7823 57.7064 49.9386C57.7064 54.0949 61.1046 57.4994 65.326 57.4994C66.8457 57.4994 68.3231 57.0607 69.5896 56.2044C73.0722 58.5437 77.8213 57.6247 80.1852 54.1785C82.5492 50.7323 81.6205 46.0329 78.1379 43.6936ZM76.4282 52.1316C75.2251 53.5519 73.0933 53.7399 71.658 52.5493C71.4892 52.424 71.3625 52.2778 71.2148 52.1107C70.8138 51.6304 70.2017 51.3588 69.5896 51.3797C68.9563 51.3797 68.3654 51.6512 67.9643 52.1316C67.3311 52.9044 66.3602 53.3639 65.3471 53.343C63.4685 53.343 61.9277 51.8392 61.9277 49.9804C61.9066 48.1006 63.4263 46.5968 65.326 46.5968C66.3391 46.5968 67.31 47.0563 67.9432 47.8291C68.682 48.7272 70.0117 48.8734 70.9193 48.1424C71.0248 48.0588 71.1304 47.9544 71.2359 47.8291C72.439 46.4088 74.5708 46.2209 76.0061 47.4114C77.4413 48.6019 77.6313 50.7114 76.4282 52.1316Z"/>
        <path d="M89.9156 25.9823C89.9156 25.7943 90 25.5854 90 25.3766C90 25.1677 89.9156 24.9797 89.9156 24.7918V20.3222C89.9156 15.4139 85.8419 11.4873 80.8818 11.4873H78.3068V8.96013C78.3068 4.0519 74.3598 0 69.3996 0H8.94942C3.98929 0 8.3373e-05 4.0519 8.3373e-05 8.96013V45.6778C-0.0210235 50.5443 3.96818 54.4918 8.8861 54.5127C8.9072 54.5127 8.92831 54.5127 8.94942 54.5127H11.3978V57.0399C11.4189 61.969 15.4292 65.9791 20.4105 66H80.8818C85.863 65.9582 89.8945 61.969 89.9156 57.0399V35.7778C89.9156 35.5899 90 35.381 90 35.193C90 35.0051 89.9156 34.7962 89.9156 34.6082V25.9823ZM11.3978 20.3222V50.3354H8.94942C6.37437 50.3563 4.24257 48.3095 4.22147 45.7614C4.22147 45.7405 4.22147 45.7196 4.22147 45.6987V8.96013C4.22147 6.37025 6.31105 4.17721 8.94942 4.17721H69.4208C72.0591 4.17721 74.1065 6.37025 74.1065 8.96013V11.4873H20.4105C15.4503 11.4873 11.3978 15.4139 11.3978 20.3222ZM85.6942 57.0399C85.6731 59.6715 83.5413 61.8019 80.8818 61.8228H20.4105C17.751 61.8019 15.6192 59.6715 15.6192 57.0399V37.1772H85.6942V57.0399ZM85.6942 33H15.6192V27.5696H85.6942V33ZM85.7153 23.3924H15.6192V20.3222C15.6403 17.7323 17.7721 15.6437 20.4105 15.6646H80.9029C83.5413 15.6646 85.7153 17.7114 85.7153 20.3222V23.3924Z"/>
    </symbol>

    <symbol id="pay-icon4" viewBox="0 0 66 66">
        <path d="M62.1177 24.6092C64.2584 24.6092 66 22.8739 66 20.7409V15.7323C66 14.1441 65.0453 12.7364 63.5671 12.1437L34.4557 0.283545C33.5077 -0.0969646 32.4819 -0.0902596 31.558 0.278129C31.5366 0.286768 32.0453 0.079558 2.43294 12.1438C0.954669 12.7364 0 14.1442 0 15.7324V20.7412C0 22.8741 1.74162 24.6095 3.88235 24.6095H6.21175V53.7505H3.88235C1.74162 53.7505 0 55.4858 0 57.6187V62.1317C0 64.2647 1.74162 66 3.88235 66H62.1175C64.2582 66 65.9999 64.2647 65.9999 62.1317V57.6187C65.9999 55.4858 64.2582 53.7505 62.1175 53.7505H59.7881V24.6095L62.1177 24.6092ZM62.1177 57.6185C62.1201 62.2347 62.1306 62.1315 62.1177 62.1315H3.88247V57.6185H62.1177ZM10.0942 53.7502V24.6092H14.4942V53.7502H10.0942ZM18.3766 53.7502V24.6092H26.9177V53.7502H18.3766ZM30.8001 53.7502V24.6092H35.2001V53.7502H30.8001ZM39.0824 53.7502V24.6092H47.6236V53.7502H39.0824ZM51.5059 53.7502V24.6092H55.9059V53.7502H51.5059ZM3.88247 20.7409C3.88247 15.3456 3.87665 15.7346 3.89606 15.7267L33.0001 3.86957L62.1041 15.7267C62.1241 15.7347 62.1177 15.3583 62.1177 20.7409C61.4724 20.7409 4.64924 20.7409 3.88247 20.7409Z"/>
        <path d="M33.0001 8.36242C31.928 8.36242 31.0589 9.2284 31.0589 10.2966V14.4227C31.0589 15.4909 31.928 16.3569 33.0001 16.3569C34.0721 16.3569 34.9413 15.4909 34.9413 14.4227V10.2966C34.9413 9.2284 34.0721 8.36242 33.0001 8.36242Z"/>
    </symbol>

    <symbol id="doc" viewBox="0 0 12 15">
        <path fill-rule="evenodd" clip-rule="evenodd"
              d="M0 2.60455C0 1.16842 1.16842 0 2.60455 0H11.7773V15H1.58203C0.700078 15.001 -0.0179882 14.2709 0.000732467 13.3887H0V2.60455ZM1.58203 14.1211H10.8984V12.7148H1.58203C1.19435 12.7148 0.878906 13.0303 0.878906 13.418C0.878906 13.8057 1.19435 14.1211 1.58203 14.1211ZM0.878906 12.0013C1.09087 11.8957 1.32955 11.8359 1.58203 11.8359H10.8984V0.878906H2.60455C1.65305 0.878906 0.878906 1.65305 0.878906 2.60455V12.0013ZM4.59961 2.25586H7.17773V3.13477H4.59961V2.25586ZM7.20703 6.44531V7.32422H9.84375V6.44531H8.96484V4.48242H2.8125V6.44531H1.93359V7.32422H4.57031V6.44531H3.69141V5.36133H5.44922V7.81544L3.7793 9.14435V10.3418H7.99805V9.14435L6.32812 7.81544V5.36133H8.08594V6.44531H7.20703ZM4.79051 9.46289L5.88867 8.58897L6.98684 9.46289H4.79051Z"/>
    </symbol>

    <symbol id="category-icon1" viewBox="0 0 26 24">
        <path d="M25.8759 6.9625C23.0645 2.60499 18.2508 0 13.0003 0C7.74974 0 2.93606 2.60499 0.124715 6.9625C-0.0330441 7.20833 -0.0411344 7.51759 0.100444 7.76739C0.242023 8.02115 0.513045 8.17975 0.808338 8.17975H2.94011V23.207C2.94011 23.6432 3.30417 24 3.74913 24H7.83064C8.27561 24 8.63967 23.6432 8.63967 23.207V8.17975H17.3569V23.207C17.3569 23.6432 17.7209 24 18.1659 24H22.2474C22.6924 24 23.0564 23.6432 23.0564 23.207V8.17975H25.1882C25.4835 8.17975 25.7545 8.02115 25.8961 7.76739C26.0417 7.51759 26.0336 7.20833 25.8759 6.9625ZM7.17129 6.03469L5.76359 3.62002C7.36141 2.63274 9.16958 1.98645 11.0748 1.7208L7.17129 6.03469ZM13.0003 1.98645L17.1748 6.59375H8.82574L13.0003 1.98645ZM14.9258 1.72476C16.831 1.99042 18.6392 2.63671 20.237 3.62399L18.8293 6.03866L14.9258 1.72476ZM4.44489 4.55179L5.63415 6.59375H2.37379C2.9927 5.83644 3.68845 5.15447 4.44489 4.55179ZM4.55815 22.414V16.0899H7.02162V22.414H4.55815ZM7.02567 14.5039H4.5622V8.17975H7.02567V14.5039ZM18.979 22.414V16.0899H21.4424V22.414H18.979ZM21.4424 14.5039H18.979V8.17975H21.4424V14.5039ZM20.3705 6.59375L21.5597 4.55179C22.3162 5.1505 23.0079 5.83248 23.6268 6.59375H20.3705Z"/>
    </symbol>

    <symbol id="category-icon2" viewBox="0 0 20 20">
        <path d="M19.2079 0H0.792079C0.356435 0 0 0.356436 0 0.792079V19.2079C0 19.6436 0.356435 20 0.792079 20H19.2079C19.6436 20 20 19.6436 20 19.2079V0.792079C20 0.356436 19.6475 0 19.2079 0ZM1.58416 8.45941V7.00594H18.4158V8.45941H1.58416ZM18.4158 10.0436V11.8931H1.58416V10.0436H18.4158ZM1.58416 13.4772H18.4158V15.3267H1.58416V13.4772ZM18.4158 1.58416V5.41782H1.58416V1.58416H18.4158ZM1.58416 18.4158V16.9109H18.4158V18.4158H1.58416Z"/>
    </symbol>

    <symbol id="category-icon3" viewBox="0 0 26 21">
        <path d="M0.792925 8.31836H25.1991C25.4886 8.31836 25.7542 8.15984 25.893 7.90621C26.0317 7.65258 26.0238 7.34346 25.8692 7.10172C23.0582 2.65522 18.2452 0 12.996 0C7.74687 0 2.93382 2.65522 0.122903 7.10172C-0.031717 7.34742 -0.0396462 7.65654 0.0991156 7.90621C0.237877 8.16381 0.503507 8.31836 0.792925 8.31836ZM12.996 1.98943L17.2104 6.73315H8.78164L12.996 1.98943ZM7.15614 6.17437L5.72888 3.67768C7.34645 2.65522 9.1781 1.98943 11.1128 1.72391L7.15614 6.17437ZM14.8792 1.72391C16.814 1.98943 18.6417 2.65918 20.2632 3.67768L18.8359 6.17437L14.8792 1.72391ZM23.6648 6.73315H20.3425L21.5557 4.60502C22.3288 5.23117 23.0384 5.94055 23.6648 6.73315ZM4.43641 4.60502L5.65355 6.73315H2.32723C2.95364 5.94055 3.66331 5.23117 4.43641 4.60502Z"/>
        <path d="M25.9604 13.1493C25.9564 13.1334 25.9524 13.1176 25.9445 13.1017C25.9207 13.0343 25.893 12.9709 25.8533 12.9155C25.8493 12.9115 25.8454 12.9075 25.8454 12.9036C25.8057 12.8481 25.7621 12.8045 25.7106 12.7609C25.6987 12.749 25.6868 12.7411 25.6749 12.7292C25.6194 12.6856 25.5599 12.6499 25.4925 12.6262C25.4886 12.6262 25.4886 12.6222 25.4846 12.6222C25.4767 12.6182 25.4687 12.6182 25.4608 12.6182C25.4053 12.5984 25.3419 12.5865 25.2824 12.5786C25.2665 12.5786 25.2507 12.5746 25.2348 12.5746C25.2269 12.5746 25.215 12.5707 25.2071 12.5707H0.792925C0.356816 12.5707 0 12.9273 0 13.3633V20.1995C0 20.2074 0.00396462 20.2153 0.00396462 20.2233C0.00396462 20.251 0.00792925 20.2787 0.0118939 20.3065C0.0158585 20.3303 0.0158585 20.358 0.0237877 20.3818C0.0277524 20.4056 0.0396462 20.4293 0.0475755 20.4531C0.0555047 20.4769 0.063434 20.5046 0.0753278 20.5284C0.0832571 20.5482 0.0991156 20.572 0.111009 20.5918C0.122903 20.6156 0.138762 20.6394 0.15462 20.6631C0.166514 20.683 0.182373 20.6988 0.198231 20.7147C0.218054 20.7384 0.237877 20.7583 0.257701 20.782C0.261665 20.786 0.26563 20.7939 0.273559 20.7979C0.285453 20.8098 0.301311 20.8177 0.31717 20.8296C0.336993 20.8454 0.356816 20.8613 0.376639 20.8732C0.400427 20.889 0.424215 20.9009 0.451967 20.9128C0.47179 20.9207 0.487649 20.9326 0.507472 20.9406C0.539189 20.9524 0.566941 20.9604 0.598658 20.9683C0.614517 20.9723 0.63434 20.9802 0.650198 20.9842C0.701738 20.9921 0.749314 21 0.800854 21H25.2071C25.6432 21 26 20.6433 26 20.2074V13.3633C25.9921 13.2919 25.9802 13.2206 25.9604 13.1493ZM6.10156 19.4069H2.56115L6.10156 15.4439V19.4069ZM7.6874 14.1559H11.2278L7.6874 18.1189V14.1559ZM12.2031 15.4439V19.4069H8.6627L12.2031 15.4439ZM13.789 14.1559H17.3294L13.789 18.1189V14.1559ZM18.3047 15.4439V19.4069H14.7643L18.3047 15.4439ZM19.8905 14.1559H23.4309L19.8905 18.1189V14.1559ZM24.4062 15.4439V19.4069H20.8658L24.4062 15.4439ZM5.12626 14.1559L1.58585 18.1189V14.1559H5.12626Z"/>
    </symbol>

    <symbol id="category-icon4" viewBox="0 0 20 25">
        <path d="M0.779271 11.8052H10.376C10.8046 11.8052 11.1553 11.4341 11.1553 10.9805V0.824674C11.1553 0.371103 10.8046 0 10.376 0H0.779271C0.350672 0 0 0.371103 0 0.824674V10.9805C0 11.4341 0.346776 11.8052 0.779271 11.8052ZM1.55854 1.64935H9.59673V10.1559H1.55854V1.64935Z"/>
        <path d="M19.2207 3.33169H12.7723C12.3437 3.33169 11.993 3.70279 11.993 4.15636V10.9805C11.993 11.4341 12.3437 11.8052 12.7723 11.8052H19.2207C19.6493 11.8052 20 11.4341 20 10.9805V4.15636C20 3.69867 19.6493 3.33169 19.2207 3.33169ZM18.4415 10.1559H13.5515V4.98104H18.4415V10.1559Z"/>
        <path d="M19.2207 13.1948H9.624C9.1954 13.1948 8.84473 13.5659 8.84473 14.0195V24.1753C8.84473 24.6289 9.1954 25 9.624 25H19.2207C19.6493 25 20 24.6289 20 24.1753V14.0195C20 13.5618 19.6493 13.1948 19.2207 13.1948ZM18.4415 23.3507H10.4033V14.8441H18.4415V23.3507Z"/>
        <path d="M7.22385 13.1948H0.779271C0.350672 13.1948 0 13.5659 0 14.0195V20.8436C0 21.2972 0.350672 21.6683 0.779271 21.6683H7.22774C7.65634 21.6683 8.00701 21.2972 8.00701 20.8436V14.0195C8.00312 13.5618 7.65634 13.1948 7.22385 13.1948ZM1.55854 20.019V14.8441H6.44847V20.019H1.55854Z"/>
    </symbol>

    <symbol id="category-icon5" viewBox="0 0 22 23">
        <path d="M21.996 0.782672C21.996 0.741261 21.9881 0.704 21.9802 0.662588C21.9723 0.621176 21.9643 0.579761 21.9525 0.542491C21.9485 0.530067 21.9485 0.517645 21.9445 0.505222C21.9366 0.480375 21.9168 0.459668 21.9049 0.438962C21.8851 0.401691 21.8693 0.364417 21.8416 0.331288C21.8178 0.298158 21.794 0.269174 21.7663 0.244327C21.7386 0.215339 21.7108 0.190491 21.6831 0.165644C21.6514 0.140797 21.6158 0.12009 21.5801 0.0993838C21.5564 0.0869603 21.5405 0.0703931 21.5167 0.0579697C21.5049 0.0538285 21.493 0.053833 21.4811 0.0496919C21.4454 0.0372684 21.4058 0.0289831 21.3662 0.0207007C21.3266 0.0124184 21.287 0.00413257 21.2474 0.00413257C21.2355 0.00413257 21.2236 0 21.2117 0H0.792222C0.3565 0 0 0.372704 0 0.828232V22.1718C0 22.6273 0.3565 23 0.792222 23H7.59741C8.03313 23 8.38963 22.6273 8.38963 22.1718V8.77097H13.6104V22.1718C13.6104 22.6273 13.9669 23 14.4026 23H21.2078C21.6435 23 22 22.6273 22 22.1718V0.828232C22 0.807526 21.996 0.795096 21.996 0.782672ZM20.4156 7.10623H16.3158L20.4156 2.82013V7.10623ZM20.4156 8.76269V14.2207H15.1948V8.76269H20.4156ZM15.1948 5.93428V1.64817H19.2946L15.1948 5.93428ZM6.80519 14.2207H1.58444V8.76269H6.80519V14.2207ZM6.80519 7.10623H2.70544L6.80519 2.82013V7.10623ZM1.58444 1.64817H5.68419L1.58444 5.93428V1.64817ZM1.58444 21.3352V15.8772H6.80519V21.3352H1.58444ZM8.38963 1.64817H13.6104V7.10623H8.38963V1.64817ZM15.1948 21.3352V15.8772H20.4156V21.3352H15.1948Z"/>
    </symbol>

    <symbol id="category-icon6" viewBox="0 0 26 25">
        <path d="M25.8762 7.12015C23.0644 2.6621 18.2499 0 12.9992 0C7.7485 0 2.93402 2.6621 0.12227 7.12015C-0.0323963 7.36649 -0.0403279 7.67641 0.098475 7.92673C0.237278 8.18102 0.502986 8.33995 0.79249 8.33995H25.2059C25.4954 8.33995 25.7612 8.18102 25.9 7.92673C26.0427 7.67641 26.0308 7.36649 25.8762 7.12015ZM12.9992 1.99459L17.2149 6.75063H8.78357L12.9992 1.99459ZM7.1576 6.1904L5.72991 3.68722C7.34795 2.66211 9.18015 1.9946 11.1155 1.72839L7.1576 6.1904ZM14.883 1.72441C16.8183 1.99062 18.6465 2.66211 20.2685 3.68325L18.8408 6.18643L14.883 1.72441ZM4.43706 4.61697L5.65456 6.75063H2.32725C2.95385 5.95597 3.66373 5.24078 4.43706 4.61697ZM20.3478 6.75063L21.5614 4.61697C22.3307 5.24078 23.0406 5.95597 23.6712 6.75063H20.3478Z"/>
        <path d="M15.1407 19.4811H10.0923C9.71157 19.4811 9.40224 19.791 9.40224 20.1725C9.40224 20.5539 9.71157 20.8638 10.0923 20.8638H15.1407C15.5215 20.8638 15.8308 20.5539 15.8308 20.1725C15.8308 19.791 15.5215 19.4811 15.1407 19.4811Z"/>
        <path d="M18.8131 20.6294C19.5731 20.6294 20.1892 20.0121 20.1892 19.2506C20.1892 18.4892 19.5731 17.8719 18.8131 17.8719C18.0531 17.8719 17.4369 18.4892 17.4369 19.2506C17.4369 20.0121 18.0531 20.6294 18.8131 20.6294Z"/>
        <path d="M6.42392 20.6294C7.18394 20.6294 7.80005 20.0121 7.80005 19.2506C7.80005 18.4892 7.18394 17.8719 6.42392 17.8719C5.66391 17.8719 5.04779 18.4892 5.04779 19.2506C5.04779 20.0121 5.66391 20.6294 6.42392 20.6294Z"/>
        <path d="M22.303 13.5052H20.9268C20.7484 13.5052 20.5739 13.5291 20.4073 13.5728L19.8204 11.9239C19.3723 10.6683 18.1865 9.82994 16.854 9.82994H8.38699C7.05449 9.82994 5.86871 10.6683 5.42058 11.9239L4.83364 13.5728C4.66707 13.5291 4.49258 13.5052 4.31412 13.5052H2.97368C1.83946 13.5052 0.887669 14.4032 0.86784 15.5396C0.851977 16.4812 1.47064 17.2838 2.32329 17.5501C2.29949 17.6534 2.29156 17.7606 2.29156 17.8719V24.3086C2.29156 24.6901 2.60089 25 2.98161 25H5.96389C6.34461 25 6.65394 24.6901 6.65394 24.3086C6.65394 23.9272 6.96327 23.6173 7.34399 23.6173H17.9009C18.2817 23.6173 18.591 23.9272 18.591 24.3086C18.591 24.6901 18.9003 25 19.281 25H22.2633C22.644 25 22.9534 24.6901 22.9534 24.3086V17.8719C22.9534 17.7606 22.9415 17.6534 22.9216 17.5501C23.7624 17.2878 24.3771 16.5011 24.3771 15.5714C24.3652 14.435 23.4412 13.5052 22.303 13.5052ZM6.3922 13.3026C6.84033 12.047 8.02611 11.2087 9.35861 11.2087H15.8784C17.2109 11.2087 18.3967 12.047 18.8448 13.3026L19.2334 14.3913C19.0907 14.5979 18.9836 14.8284 18.9202 15.0787C17.1435 14.6575 14.9385 14.4271 12.6185 14.4271C10.2985 14.4271 8.09352 14.6575 6.31685 15.0787C6.25339 14.8284 6.14632 14.5979 6.00355 14.3913L6.3922 13.3026ZM2.93402 16.2627C2.5533 16.2627 2.24397 15.9528 2.24397 15.5714C2.24397 15.1899 2.5533 14.88 2.93402 14.88H4.31015C4.64725 14.88 4.93278 15.1263 4.9883 15.4522C4.29032 15.6906 3.72321 15.9607 3.29491 16.2627H2.93402ZM21.5653 21.5512C21.5653 21.9326 21.256 22.2425 20.8753 22.2425H3.66769V17.8759C3.66769 17.713 4.096 17.1329 5.99165 16.5885C7.75247 16.0839 10.1042 15.8058 12.6185 15.8058C15.1328 15.8058 17.4845 16.0839 19.2453 16.5885C21.141 17.1329 21.5693 17.713 21.5693 17.8759V21.5512H21.5653ZM22.303 16.2627H21.9421C21.5138 15.9647 20.9506 15.6945 20.2487 15.4522C20.3042 15.1303 20.5858 14.88 20.9268 14.88H22.303C22.6837 14.88 22.993 15.1899 22.993 15.5714C22.9891 15.9528 22.6797 16.2627 22.303 16.2627Z"/>
    </symbol>

    <symbol id="checkbox" viewBox="0 0 24 24">
        <path d="M10 15.586L6.707 12.293 5.293 13.707 10 18.414 19.707 8.707 18.293 7.293z"></path>
    </symbol>
</svg>