<svg xmlns="http://www.w3.org/2000/svg" display="none">
    <symbol id="adv-icon1" viewBox="0 0 42 42">
        <path fill-rule="evenodd" clip-rule="evenodd"
              d="M28.656 1.98194L40.9443 14.2702C42.3519 15.6778 42.3519 17.9681 40.9443 19.3756L35.7939 24.526V38.3898C35.7939 40.3804 34.1744 41.9999 32.1837 41.9999H4.53642C2.54578 41.9999 0.92627 40.3804 0.92627 38.3898V21.0116C0.92627 19.0209 2.54578 17.4014 4.53642 17.4014H8.13108L23.5505 1.98194C24.958 0.574461 27.2484 0.5743 28.656 1.98194ZM26.1033 3.33181C25.7952 3.33181 25.4871 3.44918 25.2524 3.68376L11.5346 17.4014H25.9001L33.286 10.0156L26.9542 3.68376C26.7196 3.44918 26.4115 3.33181 26.1033 3.33181ZM32.1837 39.5932C32.8473 39.5932 33.3871 39.0533 33.3871 38.3898V21.0116C33.3871 20.348 32.8473 19.8082 32.1837 19.8082H4.53642C3.87287 19.8082 3.33303 20.348 3.33303 21.0116V38.3898C3.33303 39.0533 3.87287 39.5932 4.53642 39.5932H32.1837ZM32.1837 17.4014C32.3499 17.4014 32.5131 17.4137 32.6734 17.4355L36.6897 13.4192L34.9878 11.7173L29.3038 17.4014H32.1837ZM35.7939 21.1225L39.2424 17.6739C39.7117 17.2046 39.7117 16.4411 39.2424 15.9719L38.3916 15.121L34.8884 18.6242C35.4512 19.261 35.7939 20.0968 35.7939 21.0116V21.1225ZM10.2179 33.5438H5.73977V35.9506H10.2179V33.5438ZM12.6606 33.5438H17.1387V35.9506H12.6606V33.5438ZM24.0596 33.5438H19.5814V35.9506H24.0596V33.5438ZM26.5022 33.5438H30.9803V35.9506H26.5022V33.5438ZM5.73977 23.4508H13.864V30.6711H5.73977V23.4508ZM8.14653 28.2644H11.4572V25.8576H8.14653V28.2644Z"/>
    </symbol>

    <symbol id="adv-icon2" viewBox="0 0 46 33">
        <path fill-rule="evenodd" clip-rule="evenodd"
              d="M45.7008 16.5386L43.0428 13.1049L43.0453 13.1036L38.7695 4.57354C38.5272 4.0908 38.0345 3.78625 37.4958 3.78625H31.4147V2.3566C31.4147 1.56693 30.7766 0.927002 29.9895 0.927002H6.23475C5.44748 0.927002 4.80951 1.56702 4.80951 2.3566C4.80951 3.14618 5.44757 3.7862 6.23475 3.7862H28.5641V13.7937C28.5641 14.5833 29.2022 15.2232 29.9894 15.2232H41.0738L43.1495 17.9052V25.2784H40.4632C39.8454 22.7906 37.5991 20.9419 34.9304 20.9419C32.2616 20.9419 30.0153 22.7907 29.3975 25.2786H20.9844C20.3666 22.7907 18.1203 20.9419 15.4515 20.9419C12.7827 20.9419 10.5364 22.7907 9.91864 25.2786H6.23475C5.44748 25.2786 4.80951 25.9186 4.80951 26.7082C4.80951 27.4978 5.44757 28.1378 6.23475 28.1378H9.94321C10.5941 30.5773 12.8169 32.379 15.4515 32.379C18.086 32.379 20.3089 30.5774 20.9598 28.1378H29.4221C30.073 30.5774 32.2958 32.379 34.9304 32.379C37.5655 32.379 39.7881 30.5772 40.4388 28.1376H44.5747C45.362 28.1376 46 27.4976 46 26.708V17.4155C46 17.0981 45.8946 16.7893 45.7008 16.5386ZM36.6168 6.64554L39.4831 12.3641H31.4147V6.64554H36.6168ZM15.4515 29.5197C13.8794 29.5197 12.6009 28.2373 12.6009 26.6605C12.6009 25.0836 13.8794 23.8012 15.4515 23.8012C17.0231 23.8012 18.3021 25.0836 18.3021 26.6605C18.3021 28.2374 17.0236 29.5197 15.4515 29.5197ZM34.9304 29.5197C33.3583 29.5197 32.0798 28.2373 32.0798 26.6605C32.0798 25.0836 33.3583 23.8012 34.9304 23.8012C36.5024 23.8012 37.781 25.0836 37.781 26.6605C37.781 28.2374 36.5024 29.5197 34.9304 29.5197ZM4.5243 18.035H11.0806C11.8678 18.035 12.5059 18.675 12.5058 19.4646C12.5058 20.2542 11.8678 20.8942 11.0805 20.8942H4.5243C3.73712 20.8942 3.09906 20.2543 3.09906 19.4646C3.09906 18.675 3.73703 18.035 4.5243 18.035ZM14.3588 12.4117H2.19636C1.40918 12.4117 0.771118 13.0518 0.771118 13.8414C0.771118 14.6311 1.40918 15.271 2.19636 15.271H14.3588C15.146 15.271 15.784 14.631 15.784 13.8414C15.784 13.0518 15.146 12.4117 14.3588 12.4117ZM4.5243 6.78845H16.6867C17.474 6.78845 18.112 7.42847 18.112 8.21805C18.112 9.00764 17.474 9.64765 16.6867 9.64765H4.5243C3.73712 9.64765 3.09906 9.00772 3.09906 8.21805C3.09906 7.42847 3.73703 6.78845 4.5243 6.78845Z"/>
    </symbol>

    <symbol id="adv-icon3" viewBox="0 0 34 42">
        <path fill-rule="evenodd" clip-rule="evenodd"
              d="M0.533203 7.27995C0.533203 3.26583 3.79903 0 7.81315 0H33.4519V41.9263H4.95512C2.48998 41.9291 0.482924 39.8883 0.53525 37.4225H0.533203V7.27995ZM4.95512 39.4697H30.9953V35.5391H4.95512C3.87151 35.5391 2.98982 36.4208 2.98982 37.5044C2.98982 38.588 3.87151 39.4697 4.95512 39.4697ZM2.98982 33.5448C3.58228 33.2495 4.24942 33.0825 4.95512 33.0825H30.9953V2.45662H7.81315C5.15362 2.45662 2.98982 4.62041 2.98982 7.27995V33.5448ZM13.3895 6.30533H20.5956V8.76195H13.3895V6.30533ZM20.6775 18.0152V20.4719H28.0474V18.0152H25.5907V12.5288H8.3944V18.0152H5.93778V20.4719H13.3076V18.0152H10.851V14.9854H15.7643V21.8449L11.0967 25.5593V28.9062H22.8885V25.5593L18.2209 21.8449V14.9854H23.1341V18.0152H20.6775ZM13.9231 26.4496L16.9926 24.0069L20.062 26.4496H13.9231Z"/>
    </symbol>

    <symbol id="adv-icon4" viewBox="0 0 40 41">
        <path d="M38.2532 16.3163H37.2921C36.4062 7.14571 28.9511 0 19.9582 0C10.9653 0 3.50188 7.14571 2.61596 16.3163H1.74676C0.785625 16.3163 0 17.1029 0 18.0651C0 19.0273 0.785625 19.8139 1.74676 19.8139H2.59925C3.38487 29.7376 11.0489 41 19.9582 41C28.8675 41 36.5316 29.7376 37.3172 19.8055H38.1697C39.1308 19.8055 40 19.019 40 18.0567C40 17.0945 39.2144 16.3163 38.2532 16.3163ZM22.2232 3.59796V9.33796H17.8688V3.56449C18.5541 3.45571 19.2478 3.39714 19.9582 3.39714C20.7271 3.40551 21.4877 3.47245 22.2232 3.59796ZM14.3836 4.61878V10.9027C14.3836 11.8649 15.1692 12.6514 16.1304 12.6514H23.8863C24.7555 12.6514 25.5412 11.9569 25.7167 10.9947V4.69408C30.0878 6.76918 33.272 11.1286 33.8822 16.308H6.03427C6.6611 11.0616 9.91224 6.66041 14.3836 4.61878ZM19.9582 37.5945C13.0213 37.5945 6.7781 28.0306 6.00919 19.7971H33.9072C33.1383 28.039 26.8951 37.5945 19.9582 37.5945Z"/>
    </symbol>

    <symbol id="adv-icon5" viewBox="0 0 41 41">
        <path fill-rule="evenodd" clip-rule="evenodd"
              d="M3.20762 21.5621C3.67445 22.0304 3.67445 22.7896 3.20762 23.2578C2.74088 23.726 1.98397 23.726 1.51715 23.2578C0.538788 22.2765 0 20.9717 0 19.5838C0 18.196 0.538788 16.8912 1.51715 15.91C2.20711 15.2178 3.0578 14.7462 3.98453 14.5277V10.705C3.98453 10.0428 4.51973 9.50598 5.17988 9.50598H9.64255V8.30696C9.64255 7.64479 10.1778 7.10795 10.8379 7.10795H12.847C13.0393 6.70037 13.2633 6.31053 13.5177 5.94067L12.5138 4.19651C12.1836 3.62298 12.3795 2.88974 12.9513 2.55865L17.0921 0.160627C17.3667 0.00155756 17.6931 -0.0413671 17.9992 0.0408053C18.3053 0.123138 18.5665 0.324092 18.725 0.599466L19.7273 2.34075C20.1764 2.3023 20.6153 2.30198 21.0742 2.34123L22.0767 0.599466C22.2352 0.324092 22.4962 0.123138 22.8024 0.0408053C23.1086 -0.0413671 23.435 0.0016375 23.7095 0.160627L27.8503 2.55865C28.4221 2.88966 28.618 3.62298 28.2878 4.19651L27.2839 5.94051C27.5383 6.31037 27.7623 6.70013 27.9546 7.10787H29.9636C30.6238 7.10787 31.159 7.64471 31.159 8.30688V9.5059H35.6217C36.2818 9.5059 36.817 10.0427 36.817 10.7049V14.5276C37.7437 14.7462 38.5944 15.2178 39.2844 15.9099C40.2628 16.8912 40.8015 18.196 40.8015 19.5838C40.8015 20.9717 40.2628 22.2765 39.2843 23.2578C39.051 23.4919 38.745 23.609 38.4391 23.609C38.1333 23.609 37.8273 23.4919 37.5939 23.2578C37.1271 22.7895 37.1271 22.0303 37.5939 21.5621C38.6814 20.4714 38.6814 18.6963 37.5939 17.6056C37.0671 17.0772 36.3667 16.7861 35.6217 16.7861C34.8766 16.7861 34.1762 17.0772 33.6494 17.6056C32.5619 18.6963 32.5619 20.4714 33.6494 21.5621C34.1162 22.0304 34.1162 22.7896 33.6494 23.2578C33.1826 23.726 32.4257 23.726 31.9589 23.2578C30.9806 22.2765 30.4418 20.9717 30.4418 19.5838C30.4418 18.196 30.9806 16.8912 31.9589 15.91C32.6489 15.2178 33.4996 14.7462 34.4263 14.5277V11.904H31.159V13.103C31.159 13.7652 30.6238 14.302 29.9636 14.302H27.9545C27.7621 14.7097 27.5382 15.0995 27.2837 15.4694L28.2877 17.2135C28.6178 17.787 28.4219 18.5202 27.8502 18.8513L23.7094 21.2494C23.5261 21.3555 23.3197 21.41 23.1117 21.41C23.008 21.41 22.904 21.3965 22.8022 21.3692C22.4962 21.2868 22.235 21.0859 22.0765 20.8105L21.074 19.0687C20.6154 19.1079 20.1764 19.1075 19.7271 19.0692L18.7249 20.8105C18.5664 21.0859 18.3053 21.2868 17.9991 21.3692C17.6928 21.4513 17.3665 21.4083 17.092 21.2494L12.9512 18.8513C12.3794 18.5203 12.1836 17.787 12.5137 17.2135L13.5177 15.4693C13.2632 15.0995 13.0392 14.7096 12.8469 14.3019H10.8379C10.1778 14.3019 9.64255 13.7651 9.64255 13.1029V11.9039H6.37524V14.5276C7.30196 14.7462 8.15266 15.2178 8.84262 15.9099C9.82098 16.8912 10.3598 18.196 10.3598 19.5838C10.3598 20.9717 9.82098 22.2765 8.84254 23.2578C8.60921 23.4919 8.30319 23.609 7.99734 23.609C7.69149 23.609 7.38556 23.4919 7.15214 23.2578C6.68532 22.7895 6.68532 22.0303 7.15214 21.5621C8.2396 20.4714 8.2396 18.6963 7.15214 17.6056C6.62531 17.0772 5.92491 16.7861 5.17988 16.7861C4.43486 16.7861 3.73446 17.0772 3.20762 17.6056C2.12017 18.6963 2.12017 20.4714 3.20762 21.5621ZM13.6454 9.50598H12.0333V11.904H13.6453C14.1518 11.904 14.6032 12.2241 14.7722 12.7029C15.0188 13.4018 15.3849 14.0388 15.8602 14.5962C16.1895 14.9824 16.2404 15.5349 15.987 15.9751L15.1818 17.3742L17.2521 18.5732L18.0572 17.1745C18.3103 16.7348 18.8125 16.503 19.3095 16.5949C20.074 16.7364 20.7279 16.7364 21.4919 16.5949C21.5646 16.5814 21.6373 16.5749 21.7094 16.5749C22.1308 16.5749 22.5281 16.799 22.7442 17.1745L23.5493 18.5732L25.6197 17.3742L24.8144 15.9751C24.5611 15.5349 24.6119 14.9824 24.9413 14.5961C25.4164 14.039 25.7824 13.402 26.0293 12.7028C26.1983 12.224 26.6498 11.904 27.1561 11.904H28.7683V9.50598H27.1561C26.6498 9.50598 26.1983 9.186 26.0293 8.70727C25.7825 8.00801 25.4164 7.37101 24.9413 6.81395C24.6119 6.42771 24.561 5.87521 24.8144 5.43501L25.6197 4.03584L23.5493 2.83682L22.7443 4.23559C22.4913 4.67523 21.9898 4.90712 21.492 4.8152C20.7273 4.67347 20.0746 4.67347 19.3096 4.8152C18.8125 4.90712 18.3104 4.67531 18.0573 4.23559L17.2522 2.83682L15.1818 4.03584L15.9871 5.43501C16.2404 5.87512 16.1896 6.42763 15.8603 6.81387C15.385 7.37125 15.019 8.00825 14.7722 8.70711C14.6033 9.18592 14.1518 9.50598 13.6454 9.50598ZM20.4007 14.302C22.3781 14.302 23.9868 12.6884 23.9868 10.705C23.9868 8.72156 22.3781 7.10793 20.4007 7.10793C18.4234 7.10793 16.8147 8.72156 16.8147 10.705C16.8147 12.6884 18.4234 14.302 20.4007 14.302ZM20.4007 9.50596C21.0599 9.50596 21.5961 10.0438 21.5961 10.705C21.5961 11.3661 21.0599 11.904 20.4007 11.904C19.7416 11.904 19.2054 11.3661 19.2054 10.705C19.2054 10.0438 19.7416 9.50596 20.4007 9.50596ZM37.1358 32.2077V26.1384C37.1358 25.4763 36.6006 24.9394 35.9405 24.9394H28.7683C28.1082 24.9394 27.573 25.4763 27.573 26.1384V32.1335H25.1822V26.1384C25.1822 25.4763 24.647 24.9394 23.9869 24.9394H16.8147C16.1546 24.9394 15.6194 25.4763 15.6194 26.1384V32.1335H13.2287V26.1384C13.2287 25.4763 12.6935 24.9394 12.0333 24.9394H4.86115C4.20099 24.9394 3.66579 25.4763 3.66579 26.1384V32.2077C1.62834 32.5847 0.0797188 34.3788 0.0797188 36.5299C0.0797188 38.954 2.04592 40.9263 4.4627 40.9263H36.3389C38.7557 40.9263 40.7219 38.954 40.7219 36.5299C40.7219 34.3788 39.1733 32.5847 37.1358 32.2077ZM16.4988 34.5315C16.1921 35.1316 16.0178 35.8105 16.0178 36.5299C16.0178 37.2493 16.1921 37.9282 16.4988 38.5282H8.36474C8.67139 37.9282 8.84568 37.2493 8.84568 36.5299C8.84568 35.8105 8.67139 35.1316 8.36474 34.5315H16.4988ZM18.4085 36.5299C18.4085 35.428 19.3023 34.5315 20.4008 34.5315C21.4993 34.5315 22.3931 35.428 22.3931 36.5299C22.3931 37.6318 21.4993 38.5282 20.4008 38.5282C19.3023 38.5282 18.4085 37.6318 18.4085 36.5299ZM24.3028 34.5315H32.4369C32.1302 35.1316 31.9559 35.8105 31.9559 36.5299C31.9559 37.2493 32.1302 37.9282 32.4369 38.5282H24.3028C24.6095 37.9282 24.7838 37.2493 24.7838 36.5299C24.7838 35.8105 24.6095 35.1316 24.3028 34.5315ZM29.9637 27.3374H34.7451V32.1335H29.9637V27.3374ZM18.0101 27.3374H22.7915V32.1335H18.0101V27.3374ZM6.05651 27.3374H10.8379V32.1335H6.05651V27.3374ZM2.47043 36.5299C2.47043 35.428 3.36416 34.5315 4.4627 34.5315C5.56123 34.5315 6.45496 35.428 6.45496 36.5299C6.45496 37.6318 5.56123 38.5282 4.4627 38.5282C3.36416 38.5282 2.47043 37.6318 2.47043 36.5299ZM36.3389 38.5282C35.2404 38.5282 34.3466 37.6318 34.3466 36.5299C34.3466 35.428 35.2404 34.5315 36.3389 34.5315C37.4374 34.5315 38.3312 35.428 38.3312 36.5299C38.3312 37.6318 37.4374 38.5282 36.3389 38.5282Z"/>
    </symbol>

    <symbol id="adv-icon6" viewBox="0 0 40 40">
        <path fill-rule="evenodd" clip-rule="evenodd"
              d="M29.8395 20.6816V3.43421C29.8395 1.53608 28.2295 0 26.3289 0H10.3025C10.0122 0 9.7137 0.114779 9.48986 0.338689L0.331974 9.5729C0.121571 9.78498 0 10.0799 0 10.3789V35.6395C0 37.5331 1.54059 39.0737 3.43421 39.0737H6.64779H29.8395C34.8941 39.0737 39.0737 34.9119 39.0737 29.8395C39.0737 24.7898 34.9312 20.6816 29.8395 20.6816ZM9.15789 3.92469V9.23421H3.89226L9.15789 3.92469ZM3.43421 36.7842C2.803 36.7842 2.28947 36.2707 2.28947 35.6395V11.5237H10.3026C10.9348 11.5237 11.4474 11.0111 11.4474 10.3789V2.28947H26.3289C26.9794 2.28947 27.55 2.82437 27.55 3.43421V20.9666C25.1202 21.5835 23.0735 23.1588 21.8449 25.2605H5.72368C5.09148 25.2605 4.57895 25.7731 4.57895 26.4053C4.57895 27.0375 5.09148 27.55 5.72368 27.55H20.8974C20.7068 28.282 20.6053 29.0492 20.6053 29.8395H5.72368C5.09148 29.8395 4.57895 30.352 4.57895 30.9842C4.57895 31.6164 5.09148 32.1289 5.72368 32.1289H20.8956C21.3583 33.9191 22.3588 35.5325 23.7866 36.7842H3.43421ZM29.8395 36.7842C26.075 36.7842 22.8947 33.6039 22.8947 29.8395C22.8947 26.0522 26.0101 22.971 29.8395 22.971C33.6688 22.971 36.7842 26.0522 36.7842 29.8395C36.7842 33.6039 33.6039 36.7842 29.8395 36.7842ZM14.8816 6.9447H24.0394C24.6716 6.9447 25.1842 7.45724 25.1842 8.08944C25.1842 8.72164 24.6716 9.23417 24.0394 9.23417H14.8816C14.2494 9.23417 13.7368 8.72164 13.7368 8.08944C13.7368 7.45724 14.2494 6.9447 14.8816 6.9447ZM14.8816 11.5237H24.0394C24.6716 11.5237 25.1842 12.0362 25.1842 12.6684C25.1842 13.3006 24.6716 13.8132 24.0394 13.8132H14.8816C14.2494 13.8132 13.7368 13.3006 13.7368 12.6684C13.7368 12.0362 14.2494 11.5237 14.8816 11.5237ZM24.0394 16.1027H5.72359C5.09139 16.1027 4.57886 16.6152 4.57886 17.2474C4.57886 17.8796 5.09139 18.3921 5.72359 18.3921H24.0394C24.6716 18.3921 25.1841 17.8796 25.1841 17.2474C25.1841 16.6152 24.6716 16.1027 24.0394 16.1027ZM5.72359 20.6815H19.8895C20.5217 20.6815 21.0342 21.1941 21.0342 21.8263C21.0342 22.4585 20.5217 22.971 19.8895 22.971H5.72359C5.09139 22.971 4.57886 22.4585 4.57886 21.8263C4.57886 21.1941 5.09139 20.6815 5.72359 20.6815ZM32.5472 27.8786C32.998 27.4353 33.7229 27.4413 34.1661 27.8921C34.6094 28.3428 34.6035 29.0676 34.1527 29.5109L29.4975 34.0898C29.0544 34.5256 28.3449 34.5282 27.8987 34.0963L25.5329 31.8068C25.0786 31.3672 25.0667 30.6425 25.5063 30.1882C25.946 29.7339 26.6707 29.722 27.125 30.1616L28.6882 31.6744L32.5472 27.8786Z"/>
    </symbol>

    <symbol id="adv-icon7" viewBox="0 0 41 41">
        <path fill-rule="evenodd" clip-rule="evenodd"
              d="M32.4533 0C32.769 0 33.0719 0.124585 33.2964 0.34659L40.5704 7.54067C40.798 7.7658 40.9263 8.07273 40.9263 8.3931V39.7273C40.9263 40.3896 40.3896 40.9263 39.7273 40.9263H1.19901C0.536746 40.9263 0 40.3896 0 39.7273V8.3931C0 8.07273 0.12802 7.7658 0.355957 7.54067L7.62997 0.34659C7.85448 0.124585 8.15735 0 8.47303 0H32.4533ZM16.8661 22.8612C16.8661 23.5235 16.3294 24.0602 15.6671 24.0602C15.0048 24.0602 14.4681 23.5235 14.4681 22.8612V21.6622H12.0701V28.8563H19.2642V21.6622H16.8661V22.8612ZM24.0602 22.8612V21.6622H21.6622V28.8563H28.8563V21.6622H26.4582V22.8612C26.4582 23.5235 25.9215 24.0602 25.2592 24.0602C24.597 24.0602 24.0602 23.5235 24.0602 22.8612ZM19.2642 31.2543H16.8661V38.5283H24.0602V31.2543H21.6622V32.4533C21.6622 33.1156 21.1254 33.6523 20.4632 33.6523C19.8009 33.6523 19.2642 33.1156 19.2642 32.4533V31.2543ZM28.8563 31.2543H26.4582V38.5283H33.6523V31.2543H31.2543V32.4533C31.2543 33.1156 30.7175 33.6523 30.0553 33.6523C29.393 33.6523 28.8563 33.1156 28.8563 32.4533V31.2543ZM31.2543 28.8563H33.6523V14.3882H7.27402V28.8563H9.67204V20.4632C9.67204 19.8009 10.2088 19.2642 10.8711 19.2642H30.0553C30.7175 19.2642 31.2543 19.8009 31.2543 20.4632V28.8563ZM9.67204 32.4533V31.2543H7.27402V38.5283H14.4681V31.2543H12.0701V32.4533C12.0701 33.1156 11.5333 33.6523 10.8711 33.6523C10.2088 33.6523 9.67204 33.1156 9.67204 32.4533ZM36.0503 38.5283H38.5283V8.89362L31.9606 2.39803H8.96575L2.39803 8.89362V38.5283H4.87599V13.1892C4.87599 12.5269 5.41273 11.9901 6.075 11.9901H34.8513C35.5136 11.9901 36.0503 12.5269 36.0503 13.1892V38.5283ZM8.47303 7.19409H13.2691C13.9314 7.19409 14.4681 7.73084 14.4681 8.3931C14.4681 9.05537 13.9314 9.59212 13.2691 9.59212H8.47303C7.81076 9.59212 7.27402 9.05537 7.27402 8.3931C7.27402 7.73084 7.81076 7.19409 8.47303 7.19409ZM22.8612 7.19409H18.0651C17.4028 7.19409 16.8661 7.73084 16.8661 8.3931C16.8661 9.05537 17.4028 9.59212 18.0651 9.59212H22.8612C23.5234 9.59212 24.0602 9.05537 24.0602 8.3931C24.0602 7.73084 23.5234 7.19409 22.8612 7.19409ZM27.6573 9.59212C26.995 9.59212 26.4582 9.05537 26.4582 8.3931C26.4582 7.73084 26.995 7.19409 27.6573 7.19409H32.4533C33.1156 7.19409 33.6523 7.73084 33.6523 8.3931C33.6523 9.05537 33.1156 9.59212 32.4533 9.59212H27.6573Z"/>
    </symbol>

    <symbol id="whatsapp" viewBox="0 0 17 18">
        <path fill-rule="evenodd" clip-rule="evenodd"
              d="M14.5231 2.61584C12.925 0.929883 10.7997 0.000988768 8.53555 0C3.86998 0 0.0728768 4.00111 0.0710001 8.91881C0.0703746 10.4908 0.460093 12.0254 1.20085 13.3781L0 18L4.48719 16.7596C5.72359 17.4703 7.11555 17.8449 8.53211 17.8453H8.53566C13.2007 17.8453 16.9982 13.8439 17 8.92595C17.0009 6.54258 16.1213 4.3017 14.5231 2.61584ZM8.53555 16.339H8.53263C7.27027 16.3384 6.0322 15.9809 4.95187 15.3056L4.69508 15.1449L2.03231 15.881L2.74305 13.1453L2.57571 12.8648C1.87144 11.6844 1.49955 10.3201 1.50018 8.91936C1.50164 4.8319 4.65776 1.50645 8.53837 1.50645C10.4175 1.5071 12.184 2.27922 13.5122 3.68053C14.8405 5.08184 15.5716 6.94446 15.5709 8.9254C15.5693 13.0132 12.4133 16.339 8.53555 16.339ZM12.3946 10.7866C12.1831 10.675 11.1433 10.136 10.9493 10.0615C10.7556 9.98712 10.6145 9.9501 10.4736 10.1731C10.3326 10.3961 9.9273 10.8982 9.80386 11.0469C9.68042 11.1956 9.55718 11.2143 9.34564 11.1027C9.1341 10.9912 8.45267 10.7557 7.64477 9.99646C7.01609 9.40551 6.59165 8.67568 6.46821 8.45266C6.34497 8.22942 6.46716 8.12043 6.561 7.99783C6.78995 7.69823 7.01921 7.38413 7.08969 7.23549C7.16028 7.08673 7.12493 6.95654 7.07197 6.84503C7.01921 6.73352 6.59624 5.63654 6.42004 5.19016C6.24822 4.75576 6.07401 4.81443 5.9441 4.80762C5.82086 4.80114 5.6798 4.79982 5.53874 4.79982C5.39778 4.79982 5.16862 4.85552 4.9747 5.07876C4.78088 5.30189 4.23457 5.84099 4.23457 6.93798C4.23457 8.03496 4.99243 9.0947 5.09814 9.24346C5.20386 9.39221 6.58956 11.6433 8.71112 12.6086C9.21574 12.8384 9.60962 12.9754 9.91687 13.0781C10.4236 13.2478 10.8845 13.2238 11.249 13.1665C11.6554 13.1024 12.5002 12.6272 12.6766 12.1067C12.8528 11.5861 12.8528 11.1399 12.7998 11.0469C12.7471 10.9539 12.606 10.8982 12.3946 10.7866Z"/>
    </symbol>

    <symbol id="instagram" viewBox="0 0 17 17">
        <path d="M16.9568 4.99806C16.917 4.09478 16.7709 3.47379 16.5616 2.93569C16.3457 2.36451 16.0135 1.85313 15.5783 1.42802C15.1531 0.996291 14.6383 0.660821 14.0736 0.448331C13.5323 0.239084 12.9144 0.0930131 12.011 0.0531874C11.1008 0.00998885 10.8118 0 8.50331 0C6.19479 0 5.90584 0.00998885 4.99902 0.0498146C4.09557 0.0896403 3.47445 0.235841 2.93638 0.444958C2.36496 0.660821 1.85348 0.992919 1.42829 1.42802C0.996482 1.85313 0.661077 2.36788 0.448417 2.93244C0.23913 3.47379 0.0930309 4.09141 0.0531976 4.99469C0.00999076 5.90471 0 6.19361 0 8.50169C0 10.8098 0.00999076 11.0987 0.0498241 12.0053C0.0896574 12.9086 0.235886 13.5296 0.445173 14.0677C0.661077 14.6389 0.996482 15.1502 1.42829 15.5754C1.85348 16.0071 2.36833 16.3426 2.933 16.555C3.47445 16.7643 4.09219 16.9104 4.99577 16.9502C5.90247 16.9901 6.19155 17 8.50007 17C10.8086 17 11.0975 16.9901 12.0044 16.9502C12.9078 16.9104 13.5289 16.7643 14.067 16.555C15.2097 16.1133 16.1132 15.21 16.555 14.0677C16.7641 13.5263 16.9103 12.9086 16.9502 12.0053C16.99 11.0987 17 10.8098 17 8.50169C17 6.19361 16.9966 5.90471 16.9568 4.99806ZM15.4256 11.9389C15.389 12.7691 15.2495 13.2175 15.1333 13.5164C14.8476 14.257 14.2597 14.8447 13.5189 15.1304C13.22 15.2466 12.7683 15.3861 11.9412 15.4225C11.0443 15.4625 10.7754 15.4724 8.50668 15.4724C6.238 15.4724 5.96565 15.4625 5.07207 15.4225C4.24166 15.3861 3.79325 15.2466 3.4943 15.1304C3.12568 14.9942 2.79015 14.7783 2.5178 14.496C2.23547 14.2204 2.01956 13.8883 1.88332 13.5197C1.76707 13.2208 1.62759 12.7691 1.59113 11.9423C1.55116 11.0456 1.5413 10.7766 1.5413 8.5083C1.5413 6.24005 1.55116 5.96776 1.59113 5.07447C1.62759 4.24423 1.76707 3.7959 1.88332 3.49701C2.01956 3.12833 2.23547 2.79299 2.52118 2.52057C2.79677 2.23828 3.12893 2.02242 3.49768 1.88634C3.79662 1.7701 4.24841 1.63065 5.07544 1.59407C5.97227 1.55424 6.24137 1.54425 8.50993 1.54425C10.782 1.54425 11.051 1.55424 11.9445 1.59407C12.7749 1.63065 13.2234 1.7701 13.5223 1.88634C13.8909 2.02242 14.2265 2.23828 14.4988 2.52057C14.7811 2.79623 14.997 3.12833 15.1333 3.49701C15.2495 3.7959 15.389 4.24747 15.4256 5.07447C15.4654 5.97113 15.4754 6.24005 15.4754 8.5083C15.4754 10.7766 15.4654 11.0422 15.4256 11.9389Z"/>
        <path d="M8.50331 4.13461C6.09191 4.13461 4.1354 6.09061 4.1354 8.50168C4.1354 10.9128 6.09191 12.8688 8.50331 12.8688C10.9149 12.8688 12.8712 10.9128 12.8712 8.50168C12.8712 6.09061 10.9149 4.13461 8.50331 4.13461ZM8.50331 11.3345C6.93892 11.3345 5.66996 10.0659 5.66996 8.50168C5.66996 6.93745 6.93892 5.66887 8.50331 5.66887C10.0678 5.66887 11.3367 6.93745 11.3367 8.50168C11.3367 10.0659 10.0678 11.3345 8.50331 11.3345Z"/>
        <path d="M14.0637 3.96195C14.0637 4.52495 13.6072 4.98146 13.0439 4.98146C12.4808 4.98146 12.0242 4.52495 12.0242 3.96195C12.0242 3.39881 12.4808 2.94243 13.0439 2.94243C13.6072 2.94243 14.0637 3.39881 14.0637 3.96195Z"/>
    </symbol>

</svg>